G75*
G70*
%OFA0B0*%
%FSLAX24Y24*%
%IPPOS*%
%LPD*%
%AMOC8*
5,1,8,0,0,1.08239X$1,22.5*
%
%ADD10C,0.0000*%
%ADD11R,0.0591X0.0354*%
%ADD12R,0.0394X0.0433*%
%ADD13R,0.0630X0.0709*%
%ADD14C,0.0660*%
%ADD15C,0.0120*%
%ADD16C,0.0357*%
D10*
X004664Y003164D02*
X002664Y005164D01*
X013664Y005164D01*
X011664Y003164D01*
X004664Y003164D01*
X002164Y007164D02*
X002164Y009164D01*
X014164Y009164D01*
X014164Y007164D01*
X002164Y007164D01*
X002664Y011164D02*
X004664Y013164D01*
X011664Y013164D01*
X013664Y011164D01*
X002664Y011164D01*
X000290Y008164D02*
X000299Y007784D01*
X000327Y007404D01*
X000373Y007026D01*
X000437Y006651D01*
X000519Y006280D01*
X000619Y005912D01*
X000736Y005551D01*
X000871Y005195D01*
X001023Y004846D01*
X001192Y004505D01*
X001377Y004172D01*
X001578Y003849D01*
X001794Y003536D01*
X002025Y003233D01*
X002270Y002943D01*
X002529Y002664D01*
X002802Y002398D01*
X003087Y002146D01*
X003383Y001907D01*
X003691Y001684D01*
X004009Y001475D01*
X004337Y001282D01*
X004674Y001106D01*
X005019Y000945D01*
X005372Y000802D01*
X005731Y000675D01*
X006095Y000567D01*
X006465Y000476D01*
X006838Y000402D01*
X007215Y000347D01*
X007594Y000311D01*
X007974Y000292D01*
X008354Y000292D01*
X008734Y000311D01*
X009113Y000347D01*
X009490Y000402D01*
X009863Y000476D01*
X010233Y000567D01*
X010597Y000675D01*
X010956Y000802D01*
X011309Y000945D01*
X011654Y001106D01*
X011991Y001282D01*
X012319Y001475D01*
X012637Y001684D01*
X012945Y001907D01*
X013241Y002146D01*
X013526Y002398D01*
X013799Y002664D01*
X014058Y002943D01*
X014303Y003233D01*
X014534Y003536D01*
X014750Y003849D01*
X014951Y004172D01*
X015136Y004505D01*
X015305Y004846D01*
X015457Y005195D01*
X015592Y005551D01*
X015709Y005912D01*
X015809Y006280D01*
X015891Y006651D01*
X015955Y007026D01*
X016001Y007404D01*
X016029Y007784D01*
X016038Y008164D01*
X016029Y008544D01*
X016001Y008924D01*
X015955Y009302D01*
X015891Y009677D01*
X015809Y010048D01*
X015709Y010416D01*
X015592Y010777D01*
X015457Y011133D01*
X015305Y011482D01*
X015136Y011823D01*
X014951Y012156D01*
X014750Y012479D01*
X014534Y012792D01*
X014303Y013095D01*
X014058Y013385D01*
X013799Y013664D01*
X013526Y013930D01*
X013241Y014182D01*
X012945Y014421D01*
X012637Y014644D01*
X012319Y014853D01*
X011991Y015046D01*
X011654Y015222D01*
X011309Y015383D01*
X010956Y015526D01*
X010597Y015653D01*
X010233Y015761D01*
X009863Y015852D01*
X009490Y015926D01*
X009113Y015981D01*
X008734Y016017D01*
X008354Y016036D01*
X007974Y016036D01*
X007594Y016017D01*
X007215Y015981D01*
X006838Y015926D01*
X006465Y015852D01*
X006095Y015761D01*
X005731Y015653D01*
X005372Y015526D01*
X005019Y015383D01*
X004674Y015222D01*
X004337Y015046D01*
X004009Y014853D01*
X003691Y014644D01*
X003383Y014421D01*
X003087Y014182D01*
X002802Y013930D01*
X002529Y013664D01*
X002270Y013385D01*
X002025Y013095D01*
X001794Y012792D01*
X001578Y012479D01*
X001377Y012156D01*
X001192Y011823D01*
X001023Y011482D01*
X000871Y011133D01*
X000736Y010777D01*
X000619Y010416D01*
X000519Y010048D01*
X000437Y009677D01*
X000373Y009302D01*
X000327Y008924D01*
X000299Y008544D01*
X000290Y008164D01*
D11*
X001199Y009514D03*
X001199Y010813D03*
X003128Y010813D03*
X003128Y009514D03*
X005199Y009514D03*
X005199Y010813D03*
X007128Y010813D03*
X007128Y009514D03*
X009199Y009514D03*
X009199Y010813D03*
X011128Y010813D03*
X011128Y009514D03*
X013199Y009514D03*
X013199Y010813D03*
X015128Y010813D03*
X015128Y009514D03*
X015128Y006813D03*
X015128Y005514D03*
X013199Y005514D03*
X013199Y006813D03*
X011128Y006813D03*
X011128Y005514D03*
X009199Y005514D03*
X009199Y006813D03*
X007128Y006813D03*
X007128Y005514D03*
X005199Y005514D03*
X005199Y006813D03*
X003128Y006813D03*
X003128Y005514D03*
X001199Y005514D03*
X001199Y006813D03*
X005199Y002813D03*
X005199Y001514D03*
X007128Y001514D03*
X007128Y002813D03*
X009199Y002813D03*
X009199Y001514D03*
X011128Y001514D03*
X011128Y002813D03*
X011128Y013514D03*
X011128Y014813D03*
X009199Y014813D03*
X009199Y013514D03*
X007128Y013514D03*
X007128Y014813D03*
X005199Y014813D03*
X005199Y013514D03*
D12*
X001498Y008207D03*
X000829Y008207D03*
D13*
G36*
X003247Y012497D02*
X002801Y012051D01*
X002301Y012551D01*
X002747Y012997D01*
X003247Y012497D01*
G37*
G36*
X004027Y013277D02*
X003581Y012831D01*
X003081Y013331D01*
X003527Y013777D01*
X004027Y013277D01*
G37*
G36*
X012747Y012831D02*
X012301Y013277D01*
X012801Y013777D01*
X013247Y013331D01*
X012747Y012831D01*
G37*
G36*
X013527Y012051D02*
X013081Y012497D01*
X013581Y012997D01*
X014027Y012551D01*
X013527Y012051D01*
G37*
G36*
X013081Y003831D02*
X013527Y004277D01*
X014027Y003777D01*
X013581Y003331D01*
X013081Y003831D01*
G37*
G36*
X012301Y003051D02*
X012747Y003497D01*
X013247Y002997D01*
X012801Y002551D01*
X012301Y003051D01*
G37*
D14*
X004017Y002603D03*
X003310Y003310D03*
X002603Y004017D03*
D15*
X002727Y002711D02*
X003553Y002711D01*
X003547Y002697D02*
X003547Y002510D01*
X003619Y002337D01*
X003751Y002205D01*
X003924Y002133D01*
X004111Y002133D01*
X004177Y002161D01*
X004257Y002081D01*
X004374Y001964D01*
X005247Y001964D01*
X007892Y001964D01*
X007845Y001852D01*
X007845Y001725D01*
X007894Y001608D01*
X007983Y001519D01*
X008100Y001470D01*
X008199Y001470D01*
X008356Y001314D01*
X008521Y001314D01*
X008764Y001314D01*
X008764Y001279D01*
X008846Y001197D01*
X009552Y001197D01*
X009634Y001279D01*
X009634Y001749D01*
X009552Y001831D01*
X008846Y001831D01*
X008764Y001749D01*
X008764Y001714D01*
X008521Y001714D01*
X008482Y001753D01*
X008482Y001852D01*
X008436Y001964D01*
X009081Y001964D01*
X009247Y001964D01*
X011913Y001964D01*
X011983Y001894D01*
X012100Y001845D01*
X012227Y001845D01*
X012344Y001894D01*
X012434Y001983D01*
X012482Y002100D01*
X012482Y002227D01*
X012434Y002344D01*
X012344Y002434D01*
X012227Y002482D01*
X012100Y002482D01*
X011983Y002434D01*
X011913Y002364D01*
X009399Y002364D01*
X009399Y002496D01*
X009552Y002496D01*
X009634Y002578D01*
X009634Y003004D01*
X010693Y003004D01*
X010693Y002578D01*
X010775Y002496D01*
X011482Y002496D01*
X011564Y002578D01*
X011564Y002613D01*
X011633Y002543D01*
X011750Y002495D01*
X011877Y002495D01*
X011994Y002543D01*
X012083Y002633D01*
X012132Y002750D01*
X012132Y002877D01*
X012083Y002994D01*
X011994Y003083D01*
X011877Y003132D01*
X011858Y003132D01*
X013824Y005097D01*
X013824Y005196D01*
X013877Y005196D01*
X013994Y005244D01*
X014083Y005334D01*
X014132Y005451D01*
X014132Y005578D01*
X014083Y005695D01*
X013994Y005784D01*
X013877Y005833D01*
X013783Y005833D01*
X013809Y005858D01*
X013857Y005975D01*
X013857Y006102D01*
X013811Y006214D01*
X014214Y006214D01*
X014214Y004497D01*
X014199Y004482D01*
X014100Y004482D01*
X013983Y004434D01*
X013913Y004364D01*
X013831Y004364D01*
X013734Y004267D01*
X013584Y004417D01*
X013468Y004417D01*
X012940Y003889D01*
X012940Y003773D01*
X013523Y003190D01*
X013639Y003190D01*
X014167Y003718D01*
X014167Y003834D01*
X014155Y003845D01*
X014227Y003845D01*
X014344Y003894D01*
X014434Y003983D01*
X014482Y004100D01*
X014482Y004199D01*
X014614Y004331D01*
X014614Y004497D01*
X014614Y006331D01*
X014739Y006456D01*
X014739Y006533D01*
X014775Y006496D01*
X015482Y006496D01*
X015564Y006578D01*
X015564Y007049D01*
X015482Y007131D01*
X015328Y007131D01*
X015328Y007241D01*
X015328Y007281D01*
X015357Y007350D01*
X015357Y007477D01*
X015309Y007594D01*
X015219Y007684D01*
X015102Y007732D01*
X014975Y007732D01*
X014858Y007684D01*
X014769Y007594D01*
X014739Y007521D01*
X014739Y009207D01*
X014771Y009188D01*
X014812Y009177D01*
X015100Y009177D01*
X015100Y009485D01*
X015157Y009485D01*
X015157Y009177D01*
X015445Y009177D01*
X015485Y009188D01*
X015522Y009209D01*
X015552Y009239D01*
X015573Y009275D01*
X015584Y009316D01*
X015584Y009486D01*
X015157Y009486D01*
X015157Y009543D01*
X015100Y009543D01*
X015100Y009851D01*
X014812Y009851D01*
X014771Y009840D01*
X014739Y009822D01*
X014739Y009997D01*
X014622Y010114D01*
X014372Y010364D01*
X014206Y010364D01*
X013399Y010364D01*
X013399Y010496D01*
X013552Y010496D01*
X013634Y010578D01*
X013634Y010613D01*
X013731Y010613D01*
X013896Y010613D01*
X014221Y010939D01*
X014196Y010877D01*
X014196Y010750D01*
X014244Y010633D01*
X014334Y010543D01*
X014451Y010495D01*
X014578Y010495D01*
X014695Y010543D01*
X014711Y010560D01*
X014775Y010496D01*
X015482Y010496D01*
X015498Y010513D01*
X015716Y009733D01*
X015860Y008690D01*
X015878Y008164D01*
X015878Y008164D01*
X014739Y008164D01*
X014739Y008282D02*
X015874Y008282D01*
X015878Y008164D02*
X015860Y007637D01*
X015716Y006594D01*
X015502Y005830D01*
X015485Y005840D01*
X015445Y005851D01*
X015157Y005851D01*
X015157Y005543D01*
X015100Y005543D01*
X015100Y005851D01*
X014812Y005851D01*
X014771Y005840D01*
X014735Y005819D01*
X014705Y005790D01*
X014684Y005753D01*
X014673Y005712D01*
X014673Y005543D01*
X015099Y005543D01*
X015099Y005486D01*
X014673Y005486D01*
X014673Y005316D01*
X014684Y005275D01*
X014705Y005239D01*
X014735Y005209D01*
X014771Y005188D01*
X014812Y005177D01*
X015100Y005177D01*
X015100Y005485D01*
X015157Y005485D01*
X015157Y005177D01*
X015257Y005177D01*
X015013Y004615D01*
X014466Y003715D01*
X013801Y002899D01*
X013032Y002180D01*
X012172Y001573D01*
X011562Y001257D01*
X011573Y001275D01*
X011584Y001316D01*
X011584Y001486D01*
X011157Y001486D01*
X011157Y001543D01*
X011100Y001543D01*
X011100Y001851D01*
X010812Y001851D01*
X010771Y001840D01*
X010735Y001819D01*
X010705Y001790D01*
X010684Y001753D01*
X010673Y001712D01*
X010673Y001543D01*
X011099Y001543D01*
X011099Y001486D01*
X010673Y001486D01*
X010673Y001316D01*
X010684Y001275D01*
X010705Y001239D01*
X010735Y001209D01*
X010771Y001188D01*
X010812Y001177D01*
X011100Y001177D01*
X011100Y001485D01*
X011157Y001485D01*
X011157Y001177D01*
X011408Y001177D01*
X011237Y001088D01*
X010245Y000736D01*
X009214Y000522D01*
X008164Y000450D01*
X007113Y000522D01*
X006083Y000736D01*
X005090Y001088D01*
X004881Y001197D01*
X005552Y001197D01*
X005634Y001279D01*
X005634Y001749D01*
X005552Y001831D01*
X004846Y001831D01*
X004764Y001749D01*
X004764Y001279D01*
X004809Y001234D01*
X004156Y001573D01*
X003296Y002180D01*
X002526Y002899D01*
X001862Y003715D01*
X001315Y004615D01*
X001062Y005197D01*
X001552Y005197D01*
X001634Y005279D01*
X001634Y005314D01*
X001931Y005314D01*
X002097Y005314D01*
X002622Y005839D01*
X002769Y005839D01*
X002735Y005819D01*
X002705Y005790D01*
X002684Y005753D01*
X002673Y005712D01*
X002673Y005543D01*
X003099Y005543D01*
X003099Y005486D01*
X002673Y005486D01*
X002673Y005324D01*
X002597Y005324D01*
X002504Y005230D01*
X002504Y005097D01*
X004597Y003004D01*
X004730Y003004D01*
X004764Y003004D01*
X004764Y002578D01*
X004846Y002496D01*
X004999Y002496D01*
X004999Y002364D01*
X004540Y002364D01*
X004460Y002443D01*
X004487Y002510D01*
X004487Y002697D01*
X004416Y002869D01*
X004284Y003002D01*
X004111Y003073D01*
X003924Y003073D01*
X003751Y003002D01*
X003619Y002869D01*
X003547Y002697D01*
X003547Y002592D02*
X002854Y002592D01*
X002981Y002474D02*
X003562Y002474D01*
X003611Y002355D02*
X003108Y002355D01*
X003235Y002237D02*
X003719Y002237D01*
X003551Y002000D02*
X004338Y002000D01*
X004220Y002118D02*
X003383Y002118D01*
X003719Y001881D02*
X007857Y001881D01*
X007845Y001762D02*
X007567Y001762D01*
X007573Y001753D02*
X007552Y001790D01*
X007522Y001819D01*
X007485Y001840D01*
X007445Y001851D01*
X007157Y001851D01*
X007157Y001543D01*
X007100Y001543D01*
X007100Y001851D01*
X006812Y001851D01*
X006771Y001840D01*
X006735Y001819D01*
X006705Y001790D01*
X006684Y001753D01*
X006673Y001712D01*
X006673Y001543D01*
X007099Y001543D01*
X007099Y001486D01*
X006673Y001486D01*
X006673Y001316D01*
X006684Y001275D01*
X006705Y001239D01*
X006735Y001209D01*
X006771Y001188D01*
X006812Y001177D01*
X007100Y001177D01*
X007100Y001485D01*
X007157Y001485D01*
X007157Y001177D01*
X007445Y001177D01*
X007485Y001188D01*
X007522Y001209D01*
X007552Y001239D01*
X007573Y001275D01*
X007584Y001316D01*
X007584Y001486D01*
X007157Y001486D01*
X007157Y001543D01*
X007584Y001543D01*
X007584Y001712D01*
X007573Y001753D01*
X007584Y001644D02*
X007879Y001644D01*
X007977Y001525D02*
X007157Y001525D01*
X007099Y001525D02*
X005634Y001525D01*
X005634Y001407D02*
X006673Y001407D01*
X006680Y001288D02*
X005634Y001288D01*
X005529Y000933D02*
X010799Y000933D01*
X011132Y001051D02*
X005195Y001051D01*
X004933Y001170D02*
X011394Y001170D01*
X011576Y001288D02*
X011623Y001288D01*
X011584Y001407D02*
X011852Y001407D01*
X012080Y001525D02*
X011157Y001525D01*
X011157Y001543D02*
X011584Y001543D01*
X011584Y001712D01*
X011573Y001753D01*
X011552Y001790D01*
X011522Y001819D01*
X011485Y001840D01*
X011445Y001851D01*
X011157Y001851D01*
X011157Y001543D01*
X011099Y001525D02*
X009634Y001525D01*
X009634Y001407D02*
X010673Y001407D01*
X010680Y001288D02*
X009634Y001288D01*
X009634Y001644D02*
X010673Y001644D01*
X010689Y001762D02*
X009621Y001762D01*
X009199Y001514D02*
X008438Y001514D01*
X008164Y001789D01*
X008482Y001762D02*
X008777Y001762D01*
X008470Y001881D02*
X012014Y001881D01*
X012313Y001881D02*
X012609Y001881D01*
X012776Y002000D02*
X012440Y002000D01*
X012482Y002118D02*
X012944Y002118D01*
X013093Y002237D02*
X012478Y002237D01*
X012423Y002355D02*
X013220Y002355D01*
X013347Y002474D02*
X012951Y002474D01*
X012900Y002423D02*
X012864Y002402D01*
X012823Y002391D01*
X012781Y002391D01*
X012740Y002402D01*
X012704Y002423D01*
X012481Y002646D01*
X012774Y002939D01*
X012859Y003024D01*
X012774Y003109D01*
X013067Y003402D01*
X012844Y003625D01*
X012808Y003646D01*
X012767Y003657D01*
X012725Y003657D01*
X012684Y003646D01*
X012648Y003625D01*
X012453Y003430D01*
X012774Y003109D01*
X012689Y003024D01*
X012368Y003345D01*
X012173Y003150D01*
X012152Y003114D01*
X012141Y003073D01*
X012141Y003031D01*
X012152Y002990D01*
X012173Y002954D01*
X012396Y002731D01*
X012689Y003024D01*
X012774Y002939D01*
X013095Y002618D01*
X012900Y002423D01*
X013070Y002592D02*
X013474Y002592D01*
X013600Y002711D02*
X013188Y002711D01*
X013180Y002703D02*
X013375Y002898D01*
X013396Y002934D01*
X013407Y002975D01*
X013407Y003017D01*
X013396Y003058D01*
X013375Y003094D01*
X013152Y003317D01*
X012859Y003024D01*
X013180Y002703D01*
X013172Y002711D02*
X013002Y002711D01*
X013053Y002829D02*
X012884Y002829D01*
X012935Y002948D02*
X012783Y002948D01*
X012765Y002948D02*
X012613Y002948D01*
X012647Y003066D02*
X012731Y003066D01*
X012817Y003066D02*
X012901Y003066D01*
X012850Y003185D02*
X013020Y003185D01*
X012969Y003304D02*
X013138Y003304D01*
X013166Y003304D02*
X013410Y003304D01*
X013292Y003422D02*
X013048Y003422D01*
X012929Y003541D02*
X013173Y003541D01*
X013054Y003659D02*
X012385Y003659D01*
X012267Y003541D02*
X012563Y003541D01*
X012461Y003422D02*
X012148Y003422D01*
X012030Y003304D02*
X012326Y003304D01*
X012410Y003304D02*
X012579Y003304D01*
X012528Y003185D02*
X012698Y003185D01*
X012664Y002829D02*
X012495Y002829D01*
X012546Y002711D02*
X012116Y002711D01*
X012132Y002829D02*
X012297Y002829D01*
X012178Y002948D02*
X012102Y002948D01*
X012141Y003066D02*
X012011Y003066D01*
X011911Y003185D02*
X012208Y003185D01*
X011813Y002813D02*
X011128Y002813D01*
X011564Y002592D02*
X011584Y002592D01*
X012043Y002592D02*
X012534Y002592D01*
X012653Y002474D02*
X012248Y002474D01*
X012080Y002474D02*
X009399Y002474D01*
X009634Y002592D02*
X010693Y002592D01*
X010693Y002711D02*
X009634Y002711D01*
X009634Y002829D02*
X010693Y002829D01*
X010693Y002948D02*
X009634Y002948D01*
X009199Y002813D02*
X009199Y002199D01*
X009164Y002164D01*
X005164Y002164D01*
X004457Y002164D01*
X004017Y002603D01*
X003602Y002829D02*
X002600Y002829D01*
X002486Y002948D02*
X003008Y002948D01*
X003044Y002912D02*
X003217Y002840D01*
X003404Y002840D01*
X003576Y002912D01*
X003709Y003044D01*
X003780Y003217D01*
X003780Y003404D01*
X003709Y003576D01*
X003576Y003709D01*
X003404Y003780D01*
X003217Y003780D01*
X003044Y003709D01*
X002912Y003576D01*
X002840Y003404D01*
X002840Y003217D01*
X002912Y003044D01*
X003044Y002912D01*
X002902Y003066D02*
X002389Y003066D01*
X002293Y003185D02*
X002853Y003185D01*
X002840Y003304D02*
X002197Y003304D01*
X002100Y003422D02*
X002848Y003422D01*
X002897Y003541D02*
X002722Y003541D01*
X002718Y003539D02*
X002791Y003563D01*
X002860Y003598D01*
X002922Y003644D01*
X002603Y003963D01*
X002284Y003644D01*
X002346Y003598D01*
X002415Y003563D01*
X002488Y003539D01*
X002565Y003527D01*
X002642Y003527D01*
X002718Y003539D01*
X002907Y003659D02*
X002994Y003659D01*
X002977Y003698D02*
X002977Y003698D01*
X003022Y003760D01*
X003057Y003829D01*
X003081Y003903D01*
X003093Y003979D01*
X003093Y004056D01*
X003081Y004132D01*
X003057Y004205D01*
X003022Y004274D01*
X002977Y004336D01*
X002977Y004337D01*
X002658Y004017D01*
X002977Y003698D01*
X002922Y003644D02*
X002922Y003644D01*
X002897Y003778D02*
X002788Y003778D01*
X002779Y003896D02*
X002670Y003896D01*
X002603Y003963D02*
X002658Y004017D01*
X002603Y004072D01*
X002549Y004017D01*
X002603Y003963D01*
X002551Y004015D02*
X002546Y004015D01*
X002549Y004017D02*
X002229Y003698D01*
X002229Y003698D01*
X002184Y003760D01*
X002149Y003829D01*
X002125Y003903D01*
X002113Y003979D01*
X002113Y004056D01*
X002125Y004132D01*
X002149Y004205D01*
X002184Y004274D01*
X002229Y004336D01*
X002229Y004337D01*
X002549Y004017D01*
X002603Y004072D02*
X002284Y004391D01*
X002284Y004391D01*
X002346Y004436D01*
X002415Y004471D01*
X002488Y004495D01*
X002565Y004507D01*
X002642Y004507D01*
X002718Y004495D01*
X002791Y004471D01*
X002860Y004436D01*
X002922Y004391D01*
X002922Y004391D01*
X002603Y004072D01*
X002655Y004015D02*
X002660Y004015D01*
X002665Y004133D02*
X002774Y004133D01*
X002783Y004252D02*
X002892Y004252D01*
X002902Y004370D02*
X003231Y004370D01*
X003349Y004252D02*
X003034Y004252D01*
X003081Y004133D02*
X003468Y004133D01*
X003586Y004015D02*
X003093Y004015D01*
X003079Y003896D02*
X003705Y003896D01*
X003824Y003778D02*
X003410Y003778D01*
X003211Y003778D02*
X003031Y003778D01*
X002536Y003896D02*
X002428Y003896D01*
X002418Y003778D02*
X002309Y003778D01*
X002299Y003659D02*
X001907Y003659D01*
X001824Y003778D02*
X002175Y003778D01*
X002127Y003896D02*
X001752Y003896D01*
X001679Y004015D02*
X002113Y004015D01*
X002126Y004133D02*
X001607Y004133D01*
X001535Y004252D02*
X002173Y004252D01*
X002314Y004252D02*
X002423Y004252D01*
X002433Y004133D02*
X002541Y004133D01*
X002304Y004370D02*
X001463Y004370D01*
X001391Y004489D02*
X002469Y004489D01*
X002737Y004489D02*
X003112Y004489D01*
X002994Y004607D02*
X001319Y004607D01*
X001266Y004726D02*
X002875Y004726D01*
X002757Y004845D02*
X001215Y004845D01*
X001163Y004963D02*
X002638Y004963D01*
X002520Y005082D02*
X001112Y005082D01*
X001199Y005514D02*
X002014Y005514D01*
X002539Y006039D01*
X005539Y006039D01*
X005296Y005831D02*
X004846Y005831D01*
X004764Y005749D01*
X004764Y005324D01*
X003584Y005324D01*
X003584Y005486D01*
X003157Y005486D01*
X003157Y005543D01*
X003584Y005543D01*
X003584Y005712D01*
X003573Y005753D01*
X003552Y005790D01*
X003522Y005819D01*
X003488Y005839D01*
X005288Y005839D01*
X005296Y005831D01*
X005199Y005514D02*
X006014Y005514D01*
X006539Y006039D01*
X009539Y006039D01*
X009296Y005831D02*
X008846Y005831D01*
X008764Y005749D01*
X008764Y005324D01*
X007584Y005324D01*
X007584Y005486D01*
X007157Y005486D01*
X007157Y005543D01*
X007584Y005543D01*
X007584Y005712D01*
X007573Y005753D01*
X007552Y005790D01*
X007522Y005819D01*
X007488Y005839D01*
X009288Y005839D01*
X009296Y005831D01*
X009199Y005514D02*
X010014Y005514D01*
X010539Y006039D01*
X013539Y006039D01*
X013296Y005831D02*
X012846Y005831D01*
X012764Y005749D01*
X012764Y005324D01*
X011584Y005324D01*
X011584Y005486D01*
X011157Y005486D01*
X011157Y005543D01*
X011584Y005543D01*
X011584Y005712D01*
X011573Y005753D01*
X011552Y005790D01*
X011522Y005819D01*
X011488Y005839D01*
X013288Y005839D01*
X013296Y005831D01*
X013199Y005514D02*
X013813Y005514D01*
X013972Y005793D02*
X014214Y005793D01*
X014214Y005911D02*
X013831Y005911D01*
X013857Y006030D02*
X014214Y006030D01*
X014214Y006149D02*
X013838Y006149D01*
X014092Y005674D02*
X014214Y005674D01*
X014214Y005556D02*
X014132Y005556D01*
X014126Y005437D02*
X014214Y005437D01*
X014214Y005319D02*
X014068Y005319D01*
X014214Y005200D02*
X013887Y005200D01*
X013808Y005082D02*
X014214Y005082D01*
X014214Y004963D02*
X013689Y004963D01*
X013571Y004845D02*
X014214Y004845D01*
X014214Y004726D02*
X013452Y004726D01*
X013334Y004607D02*
X014214Y004607D01*
X014206Y004489D02*
X013215Y004489D01*
X013097Y004370D02*
X013421Y004370D01*
X013303Y004252D02*
X012978Y004252D01*
X012860Y004133D02*
X013184Y004133D01*
X013066Y004015D02*
X012741Y004015D01*
X012622Y003896D02*
X012947Y003896D01*
X012940Y003778D02*
X012504Y003778D01*
X013285Y003185D02*
X014035Y003185D01*
X014131Y003304D02*
X013753Y003304D01*
X013871Y003422D02*
X014227Y003422D01*
X014324Y003541D02*
X013990Y003541D01*
X014108Y003659D02*
X014420Y003659D01*
X014504Y003778D02*
X014167Y003778D01*
X014347Y003896D02*
X014576Y003896D01*
X014648Y004015D02*
X014447Y004015D01*
X014482Y004133D02*
X014720Y004133D01*
X014792Y004252D02*
X014535Y004252D01*
X014614Y004370D02*
X014864Y004370D01*
X014936Y004489D02*
X014614Y004489D01*
X014614Y004607D02*
X015009Y004607D01*
X015061Y004726D02*
X014614Y004726D01*
X014614Y004845D02*
X015113Y004845D01*
X015164Y004963D02*
X014614Y004963D01*
X014614Y005082D02*
X015216Y005082D01*
X015157Y005200D02*
X015100Y005200D01*
X015100Y005319D02*
X015157Y005319D01*
X015157Y005437D02*
X015100Y005437D01*
X015100Y005556D02*
X015157Y005556D01*
X015157Y005674D02*
X015100Y005674D01*
X015100Y005793D02*
X015157Y005793D01*
X014708Y005793D02*
X014614Y005793D01*
X014614Y005911D02*
X015525Y005911D01*
X015558Y006030D02*
X014614Y006030D01*
X014614Y006149D02*
X015592Y006149D01*
X015625Y006267D02*
X014614Y006267D01*
X014614Y006331D02*
X014614Y006331D01*
X014668Y006386D02*
X015658Y006386D01*
X015691Y006504D02*
X015490Y006504D01*
X015564Y006623D02*
X015720Y006623D01*
X015737Y006741D02*
X015564Y006741D01*
X015564Y006860D02*
X015753Y006860D01*
X015769Y006978D02*
X015564Y006978D01*
X015515Y007097D02*
X015786Y007097D01*
X015802Y007215D02*
X015328Y007215D01*
X015350Y007334D02*
X015818Y007334D01*
X015834Y007453D02*
X015357Y007453D01*
X015318Y007571D02*
X015851Y007571D01*
X015862Y007690D02*
X015205Y007690D01*
X015039Y007414D02*
X015128Y007324D01*
X015128Y006813D01*
X014767Y006504D02*
X014739Y006504D01*
X014539Y006539D02*
X014414Y006414D01*
X014414Y004414D01*
X014164Y004164D01*
X013914Y004164D01*
X013554Y003804D01*
X013554Y003554D01*
X013391Y003066D02*
X013938Y003066D01*
X013842Y002948D02*
X013400Y002948D01*
X013307Y002829D02*
X013727Y002829D01*
X012441Y001762D02*
X011567Y001762D01*
X011584Y001644D02*
X012273Y001644D01*
X012164Y002164D02*
X009164Y002164D01*
X008764Y001288D02*
X007576Y001288D01*
X007584Y001407D02*
X008263Y001407D01*
X008292Y000458D02*
X008036Y000458D01*
X007157Y001288D02*
X007100Y001288D01*
X007100Y001407D02*
X007157Y001407D01*
X007157Y001644D02*
X007100Y001644D01*
X007100Y001762D02*
X007157Y001762D01*
X006689Y001762D02*
X005621Y001762D01*
X005634Y001644D02*
X006673Y001644D01*
X006276Y000696D02*
X010051Y000696D01*
X010465Y000814D02*
X005862Y000814D01*
X006083Y000736D02*
X006083Y000736D01*
X006847Y000577D02*
X009481Y000577D01*
X011100Y001288D02*
X011157Y001288D01*
X011157Y001407D02*
X011100Y001407D01*
X011100Y001644D02*
X011157Y001644D01*
X011157Y001762D02*
X011100Y001762D01*
X013630Y004370D02*
X013920Y004370D01*
X014614Y005200D02*
X014750Y005200D01*
X014673Y005319D02*
X014614Y005319D01*
X014614Y005437D02*
X014673Y005437D01*
X014673Y005556D02*
X014614Y005556D01*
X014614Y005674D02*
X014673Y005674D01*
X014414Y006414D02*
X013164Y006414D01*
X013199Y006449D01*
X013199Y006813D01*
X013164Y006414D02*
X009164Y006414D01*
X009199Y006449D01*
X009199Y006813D01*
X009164Y006414D02*
X005164Y006414D01*
X005199Y006449D01*
X005199Y006813D01*
X005164Y006414D02*
X001289Y006414D01*
X001199Y006503D01*
X001199Y006813D01*
X000969Y007144D02*
X001059Y007233D01*
X001107Y007350D01*
X001107Y007477D01*
X001059Y007594D01*
X000989Y007664D01*
X000989Y007850D01*
X001084Y007850D01*
X001164Y007930D01*
X001244Y007850D01*
X001753Y007850D01*
X001835Y007932D01*
X001835Y008481D01*
X001753Y008563D01*
X001698Y008563D01*
X001698Y008595D01*
X001727Y008595D01*
X001844Y008644D01*
X001934Y008733D01*
X001982Y008850D01*
X001982Y008977D01*
X001934Y009094D01*
X001844Y009184D01*
X001727Y009232D01*
X001600Y009232D01*
X001579Y009223D01*
X001634Y009279D01*
X001634Y009749D01*
X001552Y009831D01*
X000846Y009831D01*
X000764Y009749D01*
X000764Y009279D01*
X000846Y009197D01*
X000891Y009197D01*
X000858Y009184D01*
X000769Y009094D01*
X000720Y008977D01*
X000720Y008850D01*
X000769Y008733D01*
X000858Y008644D01*
X000975Y008595D01*
X001102Y008595D01*
X001219Y008644D01*
X001298Y008723D01*
X001298Y008563D01*
X001244Y008563D01*
X001164Y008483D01*
X001084Y008563D01*
X000574Y008563D01*
X000492Y008481D01*
X000492Y007932D01*
X000574Y007850D01*
X000589Y007850D01*
X000589Y007664D01*
X000519Y007594D01*
X000485Y007512D01*
X000468Y007637D01*
X000450Y008164D01*
X000492Y008164D01*
X000450Y008164D02*
X000468Y008690D01*
X000611Y009733D01*
X000829Y010513D01*
X000846Y010496D01*
X000999Y010496D01*
X000999Y010420D01*
X001456Y009964D01*
X001622Y009964D01*
X002081Y009964D01*
X002247Y009964D01*
X003892Y009964D01*
X003845Y009852D01*
X003845Y009725D01*
X003894Y009608D01*
X003983Y009519D01*
X004100Y009470D01*
X004199Y009470D01*
X004346Y009324D01*
X003584Y009324D01*
X003584Y009486D01*
X003157Y009486D01*
X003157Y009543D01*
X003100Y009543D01*
X003100Y009851D01*
X002812Y009851D01*
X002771Y009840D01*
X002735Y009819D01*
X002705Y009790D01*
X002684Y009753D01*
X002673Y009712D01*
X002673Y009543D01*
X003099Y009543D01*
X003099Y009486D01*
X002673Y009486D01*
X002673Y009324D01*
X002230Y009324D01*
X002097Y009324D01*
X002004Y009230D01*
X002004Y007221D01*
X001977Y007232D01*
X001850Y007232D01*
X001733Y007184D01*
X001644Y007094D01*
X001628Y007055D01*
X001552Y007131D01*
X000937Y007131D01*
X000969Y007144D01*
X001041Y007215D02*
X001810Y007215D01*
X001647Y007097D02*
X001586Y007097D01*
X001914Y006914D02*
X002014Y006813D01*
X003128Y006813D01*
X002708Y005793D02*
X002576Y005793D01*
X002673Y005674D02*
X002457Y005674D01*
X002339Y005556D02*
X002673Y005556D01*
X002673Y005437D02*
X002220Y005437D01*
X002102Y005319D02*
X002592Y005319D01*
X002504Y005200D02*
X001556Y005200D01*
X002284Y003644D02*
X002284Y003644D01*
X002485Y003541D02*
X002004Y003541D01*
X003626Y003659D02*
X003942Y003659D01*
X004061Y003541D02*
X003724Y003541D01*
X003773Y003422D02*
X004179Y003422D01*
X004298Y003304D02*
X003780Y003304D01*
X003767Y003185D02*
X004416Y003185D01*
X004535Y003066D02*
X004127Y003066D01*
X004337Y002948D02*
X004764Y002948D01*
X004764Y002829D02*
X004432Y002829D01*
X004481Y002711D02*
X004764Y002711D01*
X004764Y002592D02*
X004487Y002592D01*
X004472Y002474D02*
X004999Y002474D01*
X005199Y002199D02*
X005164Y002164D01*
X005199Y002199D02*
X005199Y002813D01*
X004777Y001762D02*
X003887Y001762D01*
X004055Y001644D02*
X004764Y001644D01*
X004764Y001525D02*
X004247Y001525D01*
X004476Y001407D02*
X004764Y001407D01*
X004764Y001288D02*
X004705Y001288D01*
X003697Y002948D02*
X003613Y002948D01*
X003718Y003066D02*
X003908Y003066D01*
X006107Y005324D02*
X006622Y005839D01*
X006769Y005839D01*
X006735Y005819D01*
X006705Y005790D01*
X006684Y005753D01*
X006673Y005712D01*
X006673Y005543D01*
X007099Y005543D01*
X007099Y005486D01*
X006673Y005486D01*
X006673Y005324D01*
X006107Y005324D01*
X006220Y005437D02*
X006673Y005437D01*
X006673Y005556D02*
X006339Y005556D01*
X006457Y005674D02*
X006673Y005674D01*
X006708Y005793D02*
X006576Y005793D01*
X007548Y005793D02*
X008808Y005793D01*
X008764Y005674D02*
X007584Y005674D01*
X007584Y005556D02*
X008764Y005556D01*
X008764Y005437D02*
X007584Y005437D01*
X007128Y006813D02*
X006313Y006813D01*
X004808Y005793D02*
X003548Y005793D01*
X003584Y005674D02*
X004764Y005674D01*
X004764Y005556D02*
X003584Y005556D01*
X003584Y005437D02*
X004764Y005437D01*
X007128Y002813D02*
X007889Y002813D01*
X008164Y002539D01*
X010107Y005324D02*
X010622Y005839D01*
X010769Y005839D01*
X010735Y005819D01*
X010705Y005790D01*
X010684Y005753D01*
X010673Y005712D01*
X010673Y005543D01*
X011099Y005543D01*
X011099Y005486D01*
X010673Y005486D01*
X010673Y005324D01*
X010107Y005324D01*
X010220Y005437D02*
X010673Y005437D01*
X010673Y005556D02*
X010339Y005556D01*
X010457Y005674D02*
X010673Y005674D01*
X010708Y005793D02*
X010576Y005793D01*
X011548Y005793D02*
X012808Y005793D01*
X012764Y005674D02*
X011584Y005674D01*
X011584Y005556D02*
X012764Y005556D01*
X012764Y005437D02*
X011584Y005437D01*
X011128Y006813D02*
X010313Y006813D01*
X010673Y009324D02*
X009634Y009324D01*
X009634Y009749D01*
X009552Y009831D01*
X008846Y009831D01*
X008764Y009749D01*
X008764Y009714D01*
X008521Y009714D01*
X008482Y009753D01*
X008482Y009852D01*
X008436Y009964D01*
X009081Y009964D01*
X009247Y009964D01*
X011892Y009964D01*
X011845Y009852D01*
X011845Y009725D01*
X011894Y009608D01*
X011983Y009519D01*
X012100Y009470D01*
X012199Y009470D01*
X012346Y009324D01*
X011584Y009324D01*
X011584Y009486D01*
X011157Y009486D01*
X011157Y009543D01*
X011100Y009543D01*
X011100Y009851D01*
X010812Y009851D01*
X010771Y009840D01*
X010735Y009819D01*
X010705Y009790D01*
X010684Y009753D01*
X010673Y009712D01*
X010673Y009543D01*
X011099Y009543D01*
X011099Y009486D01*
X010673Y009486D01*
X010673Y009324D01*
X010673Y009349D02*
X009634Y009349D01*
X009634Y009468D02*
X010673Y009468D01*
X010673Y009586D02*
X009634Y009586D01*
X009634Y009705D02*
X010673Y009705D01*
X010742Y009823D02*
X009560Y009823D01*
X009199Y009514D02*
X008438Y009514D01*
X008164Y009789D01*
X008445Y009942D02*
X011883Y009942D01*
X011845Y009823D02*
X011515Y009823D01*
X011522Y009819D02*
X011485Y009840D01*
X011445Y009851D01*
X011157Y009851D01*
X011157Y009543D01*
X011584Y009543D01*
X011584Y009712D01*
X011573Y009753D01*
X011552Y009790D01*
X011522Y009819D01*
X011584Y009705D02*
X011854Y009705D01*
X011916Y009586D02*
X011584Y009586D01*
X011584Y009468D02*
X012202Y009468D01*
X012320Y009349D02*
X011584Y009349D01*
X011157Y009586D02*
X011100Y009586D01*
X011100Y009705D02*
X011157Y009705D01*
X011157Y009823D02*
X011100Y009823D01*
X011128Y010813D02*
X011889Y010813D01*
X012164Y010539D01*
X012164Y009789D02*
X012438Y009514D01*
X013199Y009514D01*
X013164Y010164D02*
X013199Y010199D01*
X013199Y010813D01*
X013813Y010813D01*
X014039Y011039D01*
X014039Y011289D01*
X012414Y012914D01*
X012774Y013274D01*
X012774Y013304D01*
X012444Y013617D02*
X011994Y013617D01*
X011989Y013622D02*
X011989Y013997D01*
X011872Y014114D01*
X011497Y014489D01*
X011331Y014489D01*
X010247Y014489D01*
X010234Y014502D01*
X010250Y014495D01*
X010377Y014495D01*
X010494Y014543D01*
X010564Y014613D01*
X010693Y014613D01*
X010693Y014578D01*
X010775Y014496D01*
X011482Y014496D01*
X011564Y014578D01*
X011564Y015049D01*
X011519Y015093D01*
X012172Y014755D01*
X013032Y014148D01*
X013801Y013429D01*
X014466Y012612D01*
X015013Y011713D01*
X015266Y011131D01*
X014775Y011131D01*
X014711Y011067D01*
X014695Y011083D01*
X014578Y011132D01*
X014451Y011132D01*
X014334Y011083D01*
X014244Y010994D01*
X014239Y010980D01*
X014239Y011122D01*
X014239Y011372D01*
X014122Y011489D01*
X013656Y011955D01*
X013847Y012146D01*
X013554Y012439D01*
X013638Y012524D01*
X013554Y012609D01*
X013875Y012930D01*
X013680Y013125D01*
X013643Y013146D01*
X013602Y013157D01*
X013560Y013157D01*
X013520Y013146D01*
X013483Y013125D01*
X013260Y012902D01*
X013553Y012609D01*
X013469Y012524D01*
X013175Y012817D01*
X012984Y012626D01*
X012862Y012748D01*
X013387Y013273D01*
X013387Y013389D01*
X012860Y013917D01*
X012744Y013917D01*
X012219Y013392D01*
X011989Y013622D01*
X011989Y013735D02*
X012562Y013735D01*
X012681Y013854D02*
X011989Y013854D01*
X011989Y013972D02*
X013220Y013972D01*
X013347Y013854D02*
X012923Y013854D01*
X013041Y013735D02*
X013473Y013735D01*
X013600Y013617D02*
X013160Y013617D01*
X013278Y013498D02*
X013727Y013498D01*
X013842Y013380D02*
X013387Y013380D01*
X013375Y013261D02*
X013938Y013261D01*
X014034Y013143D02*
X013649Y013143D01*
X013513Y013143D02*
X013256Y013143D01*
X013138Y013024D02*
X013382Y013024D01*
X013263Y012906D02*
X013019Y012906D01*
X012901Y012787D02*
X013145Y012787D01*
X013206Y012787D02*
X013375Y012787D01*
X013324Y012668D02*
X013494Y012668D01*
X013494Y012550D02*
X013443Y012550D01*
X013561Y012431D02*
X013731Y012431D01*
X013680Y012313D02*
X013849Y012313D01*
X013932Y012231D02*
X013638Y012524D01*
X013959Y012845D01*
X014155Y012650D01*
X014176Y012614D01*
X014187Y012573D01*
X014187Y012531D01*
X014176Y012490D01*
X014155Y012454D01*
X013932Y012231D01*
X014014Y012313D02*
X014648Y012313D01*
X014576Y012431D02*
X014132Y012431D01*
X014187Y012550D02*
X014504Y012550D01*
X014420Y012668D02*
X014136Y012668D01*
X014018Y012787D02*
X014324Y012787D01*
X014227Y012906D02*
X013850Y012906D01*
X013901Y012787D02*
X013732Y012787D01*
X013783Y012668D02*
X013613Y012668D01*
X013613Y012550D02*
X013664Y012550D01*
X013799Y012194D02*
X014720Y012194D01*
X014792Y012076D02*
X013777Y012076D01*
X013658Y011957D02*
X014864Y011957D01*
X014936Y011839D02*
X013772Y011839D01*
X013890Y011720D02*
X015008Y011720D01*
X015061Y011602D02*
X014009Y011602D01*
X014127Y011483D02*
X015113Y011483D01*
X015164Y011364D02*
X014239Y011364D01*
X014239Y011246D02*
X015216Y011246D01*
X015128Y010813D02*
X014514Y010813D01*
X014236Y010653D02*
X013936Y010653D01*
X014055Y010772D02*
X014196Y010772D01*
X014201Y010890D02*
X014173Y010890D01*
X014239Y011009D02*
X014259Y011009D01*
X014239Y011127D02*
X014440Y011127D01*
X014588Y011127D02*
X014772Y011127D01*
X014737Y010535D02*
X014673Y010535D01*
X014438Y010298D02*
X015558Y010298D01*
X015525Y010416D02*
X013399Y010416D01*
X013591Y010535D02*
X014355Y010535D01*
X014289Y010164D02*
X014539Y009914D01*
X014539Y006539D01*
X014739Y007571D02*
X014759Y007571D01*
X014739Y007690D02*
X014873Y007690D01*
X014739Y007808D02*
X015866Y007808D01*
X015870Y007927D02*
X014739Y007927D01*
X014739Y008045D02*
X015874Y008045D01*
X015870Y008401D02*
X014739Y008401D01*
X014739Y008519D02*
X015866Y008519D01*
X015862Y008638D02*
X014739Y008638D01*
X014739Y008756D02*
X015851Y008756D01*
X015834Y008875D02*
X014739Y008875D01*
X014739Y008994D02*
X015818Y008994D01*
X015802Y009112D02*
X014739Y009112D01*
X015100Y009231D02*
X015157Y009231D01*
X015157Y009349D02*
X015100Y009349D01*
X015100Y009468D02*
X015157Y009468D01*
X015157Y009543D02*
X015584Y009543D01*
X015584Y009712D01*
X015573Y009753D01*
X015552Y009790D01*
X015522Y009819D01*
X015485Y009840D01*
X015445Y009851D01*
X015157Y009851D01*
X015157Y009543D01*
X015157Y009586D02*
X015100Y009586D01*
X015100Y009705D02*
X015157Y009705D01*
X015157Y009823D02*
X015100Y009823D01*
X014742Y009823D02*
X014739Y009823D01*
X014739Y009942D02*
X015658Y009942D01*
X015625Y010060D02*
X014675Y010060D01*
X014556Y010179D02*
X015592Y010179D01*
X015515Y009823D02*
X015691Y009823D01*
X015720Y009705D02*
X015584Y009705D01*
X015584Y009586D02*
X015737Y009586D01*
X015753Y009468D02*
X015584Y009468D01*
X015584Y009349D02*
X015769Y009349D01*
X015786Y009231D02*
X015544Y009231D01*
X014289Y010164D02*
X013164Y010164D01*
X009164Y010164D01*
X009199Y010199D01*
X009199Y010813D01*
X009164Y010164D02*
X005164Y010164D01*
X005199Y010199D01*
X005199Y010813D01*
X005164Y010164D02*
X002164Y010164D01*
X002164Y011914D01*
X002774Y012524D01*
X002311Y012344D02*
X002081Y012114D01*
X001964Y011997D01*
X001964Y010364D01*
X001622Y010364D01*
X001489Y010496D01*
X001552Y010496D01*
X001634Y010578D01*
X001634Y011049D01*
X001552Y011131D01*
X001062Y011131D01*
X001315Y011713D01*
X001862Y012612D01*
X002526Y013429D01*
X003296Y014148D01*
X004156Y014755D01*
X004809Y015093D01*
X004764Y015049D01*
X004764Y014578D01*
X004846Y014496D01*
X005552Y014496D01*
X005634Y014578D01*
X005634Y014613D01*
X005731Y014613D01*
X005831Y014613D01*
X005699Y014482D01*
X005600Y014482D01*
X005483Y014434D01*
X005394Y014344D01*
X005345Y014227D01*
X005345Y014100D01*
X005394Y013983D01*
X005483Y013894D01*
X005600Y013845D01*
X005727Y013845D01*
X005844Y013894D01*
X005934Y013983D01*
X005982Y014100D01*
X005982Y014199D01*
X006396Y014613D01*
X006693Y014613D01*
X006693Y014578D01*
X006775Y014496D01*
X007482Y014496D01*
X007564Y014578D01*
X007564Y014964D01*
X008081Y014964D01*
X008431Y014613D01*
X008597Y014613D01*
X008764Y014613D01*
X008764Y014578D01*
X008846Y014496D01*
X009552Y014496D01*
X009613Y014557D01*
X009688Y014482D01*
X009600Y014482D01*
X009483Y014434D01*
X009413Y014364D01*
X006581Y014364D01*
X006464Y014247D01*
X005931Y013714D01*
X005634Y013714D01*
X005634Y013749D01*
X005552Y013831D01*
X004846Y013831D01*
X004764Y013749D01*
X004764Y013324D01*
X004730Y013324D01*
X004597Y013324D01*
X002504Y011230D01*
X002504Y011097D01*
X002597Y011004D01*
X002693Y011004D01*
X002693Y010578D01*
X002775Y010496D01*
X003482Y010496D01*
X003564Y010578D01*
X003564Y010613D01*
X003806Y010613D01*
X003845Y010574D01*
X003845Y010475D01*
X003892Y010364D01*
X002364Y010364D01*
X002364Y011831D01*
X002594Y012061D01*
X002744Y011911D01*
X002860Y011911D01*
X003387Y012438D01*
X003387Y012554D01*
X002804Y013137D01*
X002688Y013137D01*
X002161Y012610D01*
X002161Y012494D01*
X002311Y012344D01*
X002280Y012313D02*
X001679Y012313D01*
X001607Y012194D02*
X002161Y012194D01*
X002043Y012076D02*
X001535Y012076D01*
X001463Y011957D02*
X001964Y011957D01*
X001964Y011839D02*
X001391Y011839D01*
X001319Y011720D02*
X001964Y011720D01*
X001964Y011602D02*
X001266Y011602D01*
X001215Y011483D02*
X001964Y011483D01*
X001964Y011364D02*
X001163Y011364D01*
X001112Y011246D02*
X001964Y011246D01*
X001964Y011127D02*
X001556Y011127D01*
X001634Y011009D02*
X001964Y011009D01*
X001964Y010890D02*
X001634Y010890D01*
X001634Y010772D02*
X001964Y010772D01*
X001964Y010653D02*
X001634Y010653D01*
X001591Y010535D02*
X001964Y010535D01*
X001964Y010416D02*
X001569Y010416D01*
X001539Y010164D02*
X001199Y010503D01*
X001199Y010813D01*
X001004Y010416D02*
X000802Y010416D01*
X000769Y010298D02*
X001122Y010298D01*
X001241Y010179D02*
X000736Y010179D01*
X000703Y010060D02*
X001359Y010060D01*
X001539Y010164D02*
X002164Y010164D01*
X002364Y010416D02*
X003870Y010416D01*
X003845Y010535D02*
X003520Y010535D01*
X003889Y010813D02*
X003128Y010813D01*
X002693Y010772D02*
X002364Y010772D01*
X002364Y010890D02*
X002693Y010890D01*
X002592Y011009D02*
X002364Y011009D01*
X002364Y011127D02*
X002504Y011127D01*
X002520Y011246D02*
X002364Y011246D01*
X002364Y011364D02*
X002638Y011364D01*
X002757Y011483D02*
X002364Y011483D01*
X002364Y011602D02*
X002875Y011602D01*
X002994Y011720D02*
X002364Y011720D01*
X002371Y011839D02*
X003112Y011839D01*
X003231Y011957D02*
X002906Y011957D01*
X003025Y012076D02*
X003349Y012076D01*
X003468Y012194D02*
X003143Y012194D01*
X003262Y012313D02*
X003587Y012313D01*
X003705Y012431D02*
X003380Y012431D01*
X003387Y012550D02*
X003824Y012550D01*
X003942Y012668D02*
X003273Y012668D01*
X003154Y012787D02*
X003398Y012787D01*
X003483Y012702D02*
X003260Y012925D01*
X003553Y013219D01*
X003469Y013303D01*
X003175Y013010D01*
X002952Y013233D01*
X002931Y013270D01*
X002920Y013310D01*
X002920Y013352D01*
X002931Y013393D01*
X002952Y013430D01*
X003147Y013625D01*
X003469Y013304D01*
X003553Y013388D01*
X003232Y013709D01*
X003427Y013905D01*
X003464Y013926D01*
X003505Y013937D01*
X003547Y013937D01*
X003587Y013926D01*
X003624Y013905D01*
X003847Y013682D01*
X003554Y013388D01*
X003638Y013304D01*
X003932Y013597D01*
X004155Y013374D01*
X004176Y013337D01*
X004187Y013297D01*
X004187Y013255D01*
X004176Y013214D01*
X004155Y013177D01*
X003959Y012982D01*
X003638Y013303D01*
X003554Y013219D01*
X003875Y012897D01*
X003680Y012702D01*
X003643Y012681D01*
X003602Y012670D01*
X003560Y012670D01*
X003520Y012681D01*
X003483Y012702D01*
X003280Y012906D02*
X003036Y012906D01*
X002917Y013024D02*
X003161Y013024D01*
X003189Y013024D02*
X003359Y013024D01*
X003308Y013143D02*
X003477Y013143D01*
X003511Y013261D02*
X003426Y013261D01*
X003393Y013380D02*
X003545Y013380D01*
X003562Y013380D02*
X003714Y013380D01*
X003681Y013261D02*
X003596Y013261D01*
X003630Y013143D02*
X003799Y013143D01*
X003748Y013024D02*
X003918Y013024D01*
X004001Y013024D02*
X004298Y013024D01*
X004416Y013143D02*
X004120Y013143D01*
X004187Y013261D02*
X004535Y013261D01*
X004764Y013380D02*
X004149Y013380D01*
X004030Y013498D02*
X004764Y013498D01*
X004764Y013617D02*
X003782Y013617D01*
X003793Y013735D02*
X004764Y013735D01*
X005199Y013514D02*
X006014Y013514D01*
X006664Y014164D01*
X009664Y014164D01*
X009413Y013964D02*
X009483Y013894D01*
X009600Y013845D01*
X009727Y013845D01*
X009844Y013894D01*
X009934Y013983D01*
X009982Y014100D01*
X009982Y014188D01*
X010081Y014089D01*
X011331Y014089D01*
X011589Y013831D01*
X011589Y013622D01*
X011589Y013456D01*
X011721Y013324D01*
X011597Y013324D01*
X011584Y013324D01*
X011584Y013486D01*
X011157Y013486D01*
X011157Y013543D01*
X011100Y013543D01*
X011100Y013851D01*
X010812Y013851D01*
X010771Y013840D01*
X010735Y013819D01*
X010705Y013790D01*
X010684Y013753D01*
X010673Y013712D01*
X010673Y013543D01*
X011099Y013543D01*
X011099Y013486D01*
X010673Y013486D01*
X010673Y013324D01*
X010274Y013324D01*
X010284Y013334D01*
X010333Y013451D01*
X010333Y013578D01*
X010284Y013695D01*
X010195Y013784D01*
X010078Y013833D01*
X009951Y013833D01*
X009834Y013784D01*
X009764Y013714D01*
X009634Y013714D01*
X009634Y013749D01*
X009552Y013831D01*
X008846Y013831D01*
X008764Y013749D01*
X008764Y013324D01*
X007584Y013324D01*
X007584Y013486D01*
X007157Y013486D01*
X007157Y013543D01*
X007100Y013543D01*
X007100Y013851D01*
X006812Y013851D01*
X006771Y013840D01*
X006735Y013819D01*
X006705Y013790D01*
X006684Y013753D01*
X006673Y013712D01*
X006673Y013543D01*
X007099Y013543D01*
X007099Y013486D01*
X006673Y013486D01*
X006673Y013324D01*
X006107Y013324D01*
X006747Y013964D01*
X009413Y013964D01*
X009580Y013854D02*
X006637Y013854D01*
X006679Y013735D02*
X006518Y013735D01*
X006400Y013617D02*
X006673Y013617D01*
X006673Y013380D02*
X006162Y013380D01*
X006281Y013498D02*
X007099Y013498D01*
X007157Y013498D02*
X008764Y013498D01*
X008764Y013380D02*
X007584Y013380D01*
X007584Y013543D02*
X007584Y013712D01*
X007573Y013753D01*
X007552Y013790D01*
X007522Y013819D01*
X007485Y013840D01*
X007445Y013851D01*
X007157Y013851D01*
X007157Y013543D01*
X007584Y013543D01*
X007584Y013617D02*
X008764Y013617D01*
X008764Y013735D02*
X007577Y013735D01*
X007157Y013735D02*
X007100Y013735D01*
X007100Y013617D02*
X007157Y013617D01*
X006545Y014328D02*
X006111Y014328D01*
X006229Y014447D02*
X009514Y014447D01*
X009639Y014813D02*
X009199Y014813D01*
X008514Y014813D01*
X008164Y015164D01*
X006164Y015164D01*
X005813Y014813D01*
X005199Y014813D01*
X004764Y014802D02*
X004247Y014802D01*
X004476Y014921D02*
X004764Y014921D01*
X004764Y015039D02*
X004705Y015039D01*
X004764Y014684D02*
X004055Y014684D01*
X003887Y014565D02*
X004777Y014565D01*
X005387Y014328D02*
X003551Y014328D01*
X003383Y014209D02*
X005345Y014209D01*
X005349Y014091D02*
X003235Y014091D01*
X003108Y013972D02*
X005405Y013972D01*
X005580Y013854D02*
X003675Y013854D01*
X003377Y013854D02*
X002981Y013854D01*
X002854Y013735D02*
X003258Y013735D01*
X003325Y013617D02*
X003155Y013617D01*
X003139Y013617D02*
X002727Y013617D01*
X002600Y013498D02*
X003021Y013498D01*
X002928Y013380D02*
X002486Y013380D01*
X002389Y013261D02*
X002936Y013261D01*
X003043Y013143D02*
X002293Y013143D01*
X002197Y013024D02*
X002575Y013024D01*
X002456Y012906D02*
X002100Y012906D01*
X002004Y012787D02*
X002338Y012787D01*
X002219Y012668D02*
X001907Y012668D01*
X001824Y012550D02*
X002161Y012550D01*
X002223Y012431D02*
X001752Y012431D01*
X002490Y011957D02*
X002697Y011957D01*
X003764Y012787D02*
X004061Y012787D01*
X004179Y012906D02*
X003867Y012906D01*
X003833Y013498D02*
X003663Y013498D01*
X003443Y013498D02*
X003274Y013498D01*
X003719Y014447D02*
X005514Y014447D01*
X005621Y014565D02*
X005782Y014565D01*
X005992Y014209D02*
X006427Y014209D01*
X006308Y014091D02*
X005978Y014091D01*
X005923Y013972D02*
X006190Y013972D01*
X006071Y013854D02*
X005748Y013854D01*
X005634Y013735D02*
X005952Y013735D01*
X005664Y014164D02*
X006313Y014813D01*
X007128Y014813D01*
X006706Y014565D02*
X006348Y014565D01*
X007551Y014565D02*
X008777Y014565D01*
X008361Y014684D02*
X007564Y014684D01*
X007564Y014802D02*
X008242Y014802D01*
X008124Y014921D02*
X007564Y014921D01*
X009199Y013514D02*
X010014Y013514D01*
X009785Y013735D02*
X009634Y013735D01*
X009748Y013854D02*
X011566Y013854D01*
X011522Y013819D02*
X011485Y013840D01*
X011445Y013851D01*
X011157Y013851D01*
X011157Y013543D01*
X011584Y013543D01*
X011584Y013712D01*
X011573Y013753D01*
X011552Y013790D01*
X011522Y013819D01*
X011577Y013735D02*
X011589Y013735D01*
X011584Y013617D02*
X011589Y013617D01*
X011589Y013498D02*
X011157Y013498D01*
X011099Y013498D02*
X010333Y013498D01*
X010316Y013617D02*
X010673Y013617D01*
X010679Y013735D02*
X010243Y013735D01*
X010079Y014091D02*
X009978Y014091D01*
X009923Y013972D02*
X011447Y013972D01*
X011414Y014289D02*
X011789Y013914D01*
X011789Y013539D01*
X012414Y012914D01*
X012942Y012668D02*
X013026Y012668D01*
X013781Y013024D02*
X014131Y013024D01*
X013093Y014091D02*
X011894Y014091D01*
X011776Y014209D02*
X012944Y014209D01*
X012776Y014328D02*
X011657Y014328D01*
X011539Y014447D02*
X012608Y014447D01*
X012441Y014565D02*
X011551Y014565D01*
X011564Y014684D02*
X012273Y014684D01*
X012080Y014802D02*
X011564Y014802D01*
X011564Y014921D02*
X011852Y014921D01*
X011623Y015039D02*
X011564Y015039D01*
X011128Y014813D02*
X010313Y014813D01*
X010515Y014565D02*
X010706Y014565D01*
X010164Y014289D02*
X011414Y014289D01*
X011157Y013735D02*
X011100Y013735D01*
X011100Y013617D02*
X011157Y013617D01*
X011584Y013380D02*
X011665Y013380D01*
X012112Y013498D02*
X012325Y013498D01*
X010673Y013380D02*
X010303Y013380D01*
X010164Y014289D02*
X009639Y014813D01*
X007889Y010813D02*
X007128Y010813D01*
X007889Y010813D02*
X008164Y010539D01*
X007892Y009964D02*
X007845Y009852D01*
X007845Y009725D01*
X007894Y009608D01*
X007983Y009519D01*
X008100Y009470D01*
X008199Y009470D01*
X008346Y009324D01*
X007584Y009324D01*
X007584Y009486D01*
X007157Y009486D01*
X007157Y009543D01*
X007100Y009543D01*
X007100Y009851D01*
X006812Y009851D01*
X006771Y009840D01*
X006735Y009819D01*
X006705Y009790D01*
X006684Y009753D01*
X006673Y009712D01*
X006673Y009543D01*
X007099Y009543D01*
X007099Y009486D01*
X006673Y009486D01*
X006673Y009324D01*
X005634Y009324D01*
X005634Y009749D01*
X005552Y009831D01*
X004846Y009831D01*
X004764Y009749D01*
X004764Y009714D01*
X004521Y009714D01*
X004482Y009753D01*
X004482Y009852D01*
X004436Y009964D01*
X005081Y009964D01*
X005247Y009964D01*
X007892Y009964D01*
X007883Y009942D02*
X004445Y009942D01*
X004482Y009823D02*
X004838Y009823D01*
X005199Y009514D02*
X004438Y009514D01*
X004164Y009789D01*
X003883Y009942D02*
X000669Y009942D01*
X000636Y009823D02*
X000838Y009823D01*
X000764Y009705D02*
X000607Y009705D01*
X000591Y009586D02*
X000764Y009586D01*
X000764Y009468D02*
X000575Y009468D01*
X000558Y009349D02*
X000764Y009349D01*
X000812Y009231D02*
X000542Y009231D01*
X000526Y009112D02*
X000787Y009112D01*
X000727Y008994D02*
X000509Y008994D01*
X000493Y008875D02*
X000720Y008875D01*
X000759Y008756D02*
X000477Y008756D01*
X000466Y008638D02*
X000873Y008638D01*
X001128Y008519D02*
X001200Y008519D01*
X001205Y008638D02*
X001298Y008638D01*
X001498Y008748D02*
X001498Y008207D01*
X001835Y008164D02*
X002004Y008164D01*
X002004Y008282D02*
X001835Y008282D01*
X001835Y008401D02*
X002004Y008401D01*
X002004Y008519D02*
X001797Y008519D01*
X001830Y008638D02*
X002004Y008638D01*
X002004Y008756D02*
X001943Y008756D01*
X001982Y008875D02*
X002004Y008875D01*
X002004Y008994D02*
X001975Y008994D01*
X002004Y009112D02*
X001916Y009112D01*
X002004Y009231D02*
X001731Y009231D01*
X001597Y009231D02*
X001586Y009231D01*
X001634Y009349D02*
X002673Y009349D01*
X002673Y009468D02*
X001634Y009468D01*
X001634Y009586D02*
X002673Y009586D01*
X002673Y009705D02*
X001634Y009705D01*
X001560Y009823D02*
X002742Y009823D01*
X003100Y009823D02*
X003157Y009823D01*
X003157Y009851D02*
X003157Y009543D01*
X003584Y009543D01*
X003584Y009712D01*
X003573Y009753D01*
X003552Y009790D01*
X003522Y009819D01*
X003485Y009840D01*
X003445Y009851D01*
X003157Y009851D01*
X003157Y009705D02*
X003100Y009705D01*
X003100Y009586D02*
X003157Y009586D01*
X003584Y009586D02*
X003916Y009586D01*
X003854Y009705D02*
X003584Y009705D01*
X003515Y009823D02*
X003845Y009823D01*
X003584Y009468D02*
X004202Y009468D01*
X004320Y009349D02*
X003584Y009349D01*
X004164Y010539D02*
X003889Y010813D01*
X002737Y010535D02*
X002364Y010535D01*
X002364Y010653D02*
X002693Y010653D01*
X001199Y009514D02*
X001199Y009074D01*
X001039Y008914D01*
X001498Y008748D02*
X001664Y008914D01*
X001835Y008045D02*
X002004Y008045D01*
X002004Y007927D02*
X001830Y007927D01*
X002004Y007808D02*
X000989Y007808D01*
X000989Y007690D02*
X002004Y007690D01*
X002004Y007571D02*
X001068Y007571D01*
X001107Y007453D02*
X002004Y007453D01*
X002004Y007334D02*
X001100Y007334D01*
X000789Y007414D02*
X000789Y008166D01*
X000829Y008207D01*
X000492Y008282D02*
X000454Y008282D01*
X000450Y008164D02*
X000450Y008164D01*
X000454Y008045D02*
X000492Y008045D01*
X000498Y007927D02*
X000458Y007927D01*
X000462Y007808D02*
X000589Y007808D01*
X000589Y007690D02*
X000466Y007690D01*
X000477Y007571D02*
X000509Y007571D01*
X001160Y007927D02*
X001167Y007927D01*
X000492Y008401D02*
X000458Y008401D01*
X000462Y008519D02*
X000530Y008519D01*
X005634Y009349D02*
X006673Y009349D01*
X006673Y009468D02*
X005634Y009468D01*
X005634Y009586D02*
X006673Y009586D01*
X006673Y009705D02*
X005634Y009705D01*
X005560Y009823D02*
X006742Y009823D01*
X007100Y009823D02*
X007157Y009823D01*
X007157Y009851D02*
X007157Y009543D01*
X007584Y009543D01*
X007584Y009712D01*
X007573Y009753D01*
X007552Y009790D01*
X007522Y009819D01*
X007485Y009840D01*
X007445Y009851D01*
X007157Y009851D01*
X007157Y009705D02*
X007100Y009705D01*
X007100Y009586D02*
X007157Y009586D01*
X007584Y009586D02*
X007916Y009586D01*
X007854Y009705D02*
X007584Y009705D01*
X007515Y009823D02*
X007845Y009823D01*
X007584Y009468D02*
X008202Y009468D01*
X008320Y009349D02*
X007584Y009349D01*
X008482Y009823D02*
X008838Y009823D01*
D16*
X008164Y009789D03*
X007789Y009539D03*
X008164Y010539D03*
X010014Y013514D03*
X010539Y013914D03*
X009664Y014164D03*
X010313Y014813D03*
X007789Y013664D03*
X005664Y014164D03*
X004164Y014414D03*
X003664Y014164D03*
X004164Y010539D03*
X004164Y009789D03*
X003789Y009539D03*
X001664Y008914D03*
X001039Y008914D03*
X000789Y007414D03*
X001914Y006914D03*
X003789Y005664D03*
X005539Y006039D03*
X006313Y006813D03*
X007789Y005664D03*
X009539Y006039D03*
X010313Y006813D03*
X011789Y005664D03*
X013539Y006039D03*
X013813Y005514D03*
X014164Y004164D03*
X015164Y006164D03*
X015039Y007414D03*
X015164Y010164D03*
X014514Y010813D03*
X014039Y011914D03*
X014414Y012164D03*
X012164Y010539D03*
X012164Y009789D03*
X011789Y009539D03*
X011813Y002813D03*
X012164Y002164D03*
X011789Y001664D03*
X008164Y001789D03*
X007789Y001539D03*
X008164Y002539D03*
M02*
