G75*
G70*
%OFA0B0*%
%FSLAX24Y24*%
%IPPOS*%
%LPD*%
%AMOC8*
5,1,8,0,0,1.08239X$1,22.5*
%
%ADD10C,0.0000*%
%ADD11C,0.0740*%
D10*
X004664Y003164D02*
X002664Y005164D01*
X013664Y005164D01*
X011664Y003164D01*
X004664Y003164D01*
X002164Y007164D02*
X002164Y009164D01*
X014164Y009164D01*
X014164Y007164D01*
X002164Y007164D01*
X002664Y011164D02*
X004664Y013164D01*
X011664Y013164D01*
X013664Y011164D01*
X002664Y011164D01*
X000290Y008164D02*
X000299Y007784D01*
X000327Y007404D01*
X000373Y007026D01*
X000437Y006651D01*
X000519Y006280D01*
X000619Y005912D01*
X000736Y005551D01*
X000871Y005195D01*
X001023Y004846D01*
X001192Y004505D01*
X001377Y004172D01*
X001578Y003849D01*
X001794Y003536D01*
X002025Y003233D01*
X002270Y002943D01*
X002529Y002664D01*
X002802Y002398D01*
X003087Y002146D01*
X003383Y001907D01*
X003691Y001684D01*
X004009Y001475D01*
X004337Y001282D01*
X004674Y001106D01*
X005019Y000945D01*
X005372Y000802D01*
X005731Y000675D01*
X006095Y000567D01*
X006465Y000476D01*
X006838Y000402D01*
X007215Y000347D01*
X007594Y000311D01*
X007974Y000292D01*
X008354Y000292D01*
X008734Y000311D01*
X009113Y000347D01*
X009490Y000402D01*
X009863Y000476D01*
X010233Y000567D01*
X010597Y000675D01*
X010956Y000802D01*
X011309Y000945D01*
X011654Y001106D01*
X011991Y001282D01*
X012319Y001475D01*
X012637Y001684D01*
X012945Y001907D01*
X013241Y002146D01*
X013526Y002398D01*
X013799Y002664D01*
X014058Y002943D01*
X014303Y003233D01*
X014534Y003536D01*
X014750Y003849D01*
X014951Y004172D01*
X015136Y004505D01*
X015305Y004846D01*
X015457Y005195D01*
X015592Y005551D01*
X015709Y005912D01*
X015809Y006280D01*
X015891Y006651D01*
X015955Y007026D01*
X016001Y007404D01*
X016029Y007784D01*
X016038Y008164D01*
X016029Y008544D01*
X016001Y008924D01*
X015955Y009302D01*
X015891Y009677D01*
X015809Y010048D01*
X015709Y010416D01*
X015592Y010777D01*
X015457Y011133D01*
X015305Y011482D01*
X015136Y011823D01*
X014951Y012156D01*
X014750Y012479D01*
X014534Y012792D01*
X014303Y013095D01*
X014058Y013385D01*
X013799Y013664D01*
X013526Y013930D01*
X013241Y014182D01*
X012945Y014421D01*
X012637Y014644D01*
X012319Y014853D01*
X011991Y015046D01*
X011654Y015222D01*
X011309Y015383D01*
X010956Y015526D01*
X010597Y015653D01*
X010233Y015761D01*
X009863Y015852D01*
X009490Y015926D01*
X009113Y015981D01*
X008734Y016017D01*
X008354Y016036D01*
X007974Y016036D01*
X007594Y016017D01*
X007215Y015981D01*
X006838Y015926D01*
X006465Y015852D01*
X006095Y015761D01*
X005731Y015653D01*
X005372Y015526D01*
X005019Y015383D01*
X004674Y015222D01*
X004337Y015046D01*
X004009Y014853D01*
X003691Y014644D01*
X003383Y014421D01*
X003087Y014182D01*
X002802Y013930D01*
X002529Y013664D01*
X002270Y013385D01*
X002025Y013095D01*
X001794Y012792D01*
X001578Y012479D01*
X001377Y012156D01*
X001192Y011823D01*
X001023Y011482D01*
X000871Y011133D01*
X000736Y010777D01*
X000619Y010416D01*
X000519Y010048D01*
X000437Y009677D01*
X000373Y009302D01*
X000327Y008924D01*
X000299Y008544D01*
X000290Y008164D01*
D11*
X003310Y003310D03*
X004017Y002603D03*
X002603Y004017D03*
M02*
