G75*
G70*
%OFA0B0*%
%FSLAX24Y24*%
%IPPOS*%
%LPD*%
%AMOC8*
5,1,8,0,0,1.08239X$1,22.5*
%
%ADD10C,0.0000*%
%ADD11C,0.0050*%
%ADD12C,0.0080*%
D10*
X004664Y003164D02*
X002664Y005164D01*
X013664Y005164D01*
X011664Y003164D01*
X004664Y003164D01*
X002164Y007164D02*
X002164Y009164D01*
X014164Y009164D01*
X014164Y007164D01*
X002164Y007164D01*
X002664Y011164D02*
X004664Y013164D01*
X011664Y013164D01*
X013664Y011164D01*
X002664Y011164D01*
X000290Y008164D02*
X000299Y007784D01*
X000327Y007404D01*
X000373Y007026D01*
X000437Y006651D01*
X000519Y006280D01*
X000619Y005912D01*
X000736Y005551D01*
X000871Y005195D01*
X001023Y004846D01*
X001192Y004505D01*
X001377Y004172D01*
X001578Y003849D01*
X001794Y003536D01*
X002025Y003233D01*
X002270Y002943D01*
X002529Y002664D01*
X002802Y002398D01*
X003087Y002146D01*
X003383Y001907D01*
X003691Y001684D01*
X004009Y001475D01*
X004337Y001282D01*
X004674Y001106D01*
X005019Y000945D01*
X005372Y000802D01*
X005731Y000675D01*
X006095Y000567D01*
X006465Y000476D01*
X006838Y000402D01*
X007215Y000347D01*
X007594Y000311D01*
X007974Y000292D01*
X008354Y000292D01*
X008734Y000311D01*
X009113Y000347D01*
X009490Y000402D01*
X009863Y000476D01*
X010233Y000567D01*
X010597Y000675D01*
X010956Y000802D01*
X011309Y000945D01*
X011654Y001106D01*
X011991Y001282D01*
X012319Y001475D01*
X012637Y001684D01*
X012945Y001907D01*
X013241Y002146D01*
X013526Y002398D01*
X013799Y002664D01*
X014058Y002943D01*
X014303Y003233D01*
X014534Y003536D01*
X014750Y003849D01*
X014951Y004172D01*
X015136Y004505D01*
X015305Y004846D01*
X015457Y005195D01*
X015592Y005551D01*
X015709Y005912D01*
X015809Y006280D01*
X015891Y006651D01*
X015955Y007026D01*
X016001Y007404D01*
X016029Y007784D01*
X016038Y008164D01*
X016029Y008544D01*
X016001Y008924D01*
X015955Y009302D01*
X015891Y009677D01*
X015809Y010048D01*
X015709Y010416D01*
X015592Y010777D01*
X015457Y011133D01*
X015305Y011482D01*
X015136Y011823D01*
X014951Y012156D01*
X014750Y012479D01*
X014534Y012792D01*
X014303Y013095D01*
X014058Y013385D01*
X013799Y013664D01*
X013526Y013930D01*
X013241Y014182D01*
X012945Y014421D01*
X012637Y014644D01*
X012319Y014853D01*
X011991Y015046D01*
X011654Y015222D01*
X011309Y015383D01*
X010956Y015526D01*
X010597Y015653D01*
X010233Y015761D01*
X009863Y015852D01*
X009490Y015926D01*
X009113Y015981D01*
X008734Y016017D01*
X008354Y016036D01*
X007974Y016036D01*
X007594Y016017D01*
X007215Y015981D01*
X006838Y015926D01*
X006465Y015852D01*
X006095Y015761D01*
X005731Y015653D01*
X005372Y015526D01*
X005019Y015383D01*
X004674Y015222D01*
X004337Y015046D01*
X004009Y014853D01*
X003691Y014644D01*
X003383Y014421D01*
X003087Y014182D01*
X002802Y013930D01*
X002529Y013664D01*
X002270Y013385D01*
X002025Y013095D01*
X001794Y012792D01*
X001578Y012479D01*
X001377Y012156D01*
X001192Y011823D01*
X001023Y011482D01*
X000871Y011133D01*
X000736Y010777D01*
X000619Y010416D01*
X000519Y010048D01*
X000437Y009677D01*
X000373Y009302D01*
X000327Y008924D01*
X000299Y008544D01*
X000290Y008164D01*
D11*
X001770Y009180D02*
X002557Y009180D01*
X002351Y009376D02*
X002353Y009394D01*
X002359Y009412D01*
X002368Y009428D01*
X002380Y009441D01*
X002395Y009452D01*
X002412Y009460D01*
X002430Y009464D01*
X002448Y009464D01*
X002466Y009460D01*
X002483Y009452D01*
X002498Y009441D01*
X002510Y009428D01*
X002519Y009412D01*
X002525Y009394D01*
X002527Y009376D01*
X002525Y009358D01*
X002519Y009340D01*
X002510Y009324D01*
X002498Y009311D01*
X002483Y009300D01*
X002466Y009292D01*
X002448Y009288D01*
X002430Y009288D01*
X002412Y009292D01*
X002395Y009300D01*
X002380Y009311D01*
X002368Y009324D01*
X002359Y009340D01*
X002353Y009358D01*
X002351Y009376D01*
X003148Y009809D02*
X003148Y010518D01*
X002557Y011148D02*
X001770Y011148D01*
X001180Y010518D02*
X001180Y010388D01*
X001180Y009939D01*
X001180Y009809D01*
X001770Y007148D02*
X002557Y007148D01*
X003148Y006518D02*
X003148Y005809D01*
X002557Y005180D02*
X001770Y005180D01*
X002351Y005376D02*
X002353Y005394D01*
X002359Y005412D01*
X002368Y005428D01*
X002380Y005441D01*
X002395Y005452D01*
X002412Y005460D01*
X002430Y005464D01*
X002448Y005464D01*
X002466Y005460D01*
X002483Y005452D01*
X002498Y005441D01*
X002510Y005428D01*
X002519Y005412D01*
X002525Y005394D01*
X002527Y005376D01*
X002525Y005358D01*
X002519Y005340D01*
X002510Y005324D01*
X002498Y005311D01*
X002483Y005300D01*
X002466Y005292D01*
X002448Y005288D01*
X002430Y005288D01*
X002412Y005292D01*
X002395Y005300D01*
X002380Y005311D01*
X002368Y005324D01*
X002359Y005340D01*
X002353Y005358D01*
X002351Y005376D01*
X001180Y005809D02*
X001180Y005939D01*
X001180Y006388D01*
X001180Y006518D01*
X005180Y006518D02*
X005180Y006388D01*
X005180Y005939D01*
X005180Y005809D01*
X005770Y005180D02*
X006557Y005180D01*
X006351Y005376D02*
X006353Y005394D01*
X006359Y005412D01*
X006368Y005428D01*
X006380Y005441D01*
X006395Y005452D01*
X006412Y005460D01*
X006430Y005464D01*
X006448Y005464D01*
X006466Y005460D01*
X006483Y005452D01*
X006498Y005441D01*
X006510Y005428D01*
X006519Y005412D01*
X006525Y005394D01*
X006527Y005376D01*
X006525Y005358D01*
X006519Y005340D01*
X006510Y005324D01*
X006498Y005311D01*
X006483Y005300D01*
X006466Y005292D01*
X006448Y005288D01*
X006430Y005288D01*
X006412Y005292D01*
X006395Y005300D01*
X006380Y005311D01*
X006368Y005324D01*
X006359Y005340D01*
X006353Y005358D01*
X006351Y005376D01*
X007148Y005809D02*
X007148Y006518D01*
X006557Y007148D02*
X005770Y007148D01*
X005770Y009180D02*
X006557Y009180D01*
X006351Y009376D02*
X006353Y009394D01*
X006359Y009412D01*
X006368Y009428D01*
X006380Y009441D01*
X006395Y009452D01*
X006412Y009460D01*
X006430Y009464D01*
X006448Y009464D01*
X006466Y009460D01*
X006483Y009452D01*
X006498Y009441D01*
X006510Y009428D01*
X006519Y009412D01*
X006525Y009394D01*
X006527Y009376D01*
X006525Y009358D01*
X006519Y009340D01*
X006510Y009324D01*
X006498Y009311D01*
X006483Y009300D01*
X006466Y009292D01*
X006448Y009288D01*
X006430Y009288D01*
X006412Y009292D01*
X006395Y009300D01*
X006380Y009311D01*
X006368Y009324D01*
X006359Y009340D01*
X006353Y009358D01*
X006351Y009376D01*
X007148Y009809D02*
X007148Y010518D01*
X006557Y011148D02*
X005770Y011148D01*
X005180Y010518D02*
X005180Y010388D01*
X005180Y009939D01*
X005180Y009809D01*
X005770Y013180D02*
X006557Y013180D01*
X006351Y013376D02*
X006353Y013394D01*
X006359Y013412D01*
X006368Y013428D01*
X006380Y013441D01*
X006395Y013452D01*
X006412Y013460D01*
X006430Y013464D01*
X006448Y013464D01*
X006466Y013460D01*
X006483Y013452D01*
X006498Y013441D01*
X006510Y013428D01*
X006519Y013412D01*
X006525Y013394D01*
X006527Y013376D01*
X006525Y013358D01*
X006519Y013340D01*
X006510Y013324D01*
X006498Y013311D01*
X006483Y013300D01*
X006466Y013292D01*
X006448Y013288D01*
X006430Y013288D01*
X006412Y013292D01*
X006395Y013300D01*
X006380Y013311D01*
X006368Y013324D01*
X006359Y013340D01*
X006353Y013358D01*
X006351Y013376D01*
X007148Y013809D02*
X007148Y014518D01*
X006557Y015148D02*
X005770Y015148D01*
X005180Y014518D02*
X005180Y014388D01*
X005180Y013939D01*
X005180Y013809D01*
X009180Y013809D02*
X009180Y013939D01*
X009180Y014388D01*
X009180Y014518D01*
X009770Y015148D02*
X010557Y015148D01*
X011148Y014518D02*
X011148Y013809D01*
X010557Y013180D02*
X009770Y013180D01*
X010351Y013376D02*
X010353Y013394D01*
X010359Y013412D01*
X010368Y013428D01*
X010380Y013441D01*
X010395Y013452D01*
X010412Y013460D01*
X010430Y013464D01*
X010448Y013464D01*
X010466Y013460D01*
X010483Y013452D01*
X010498Y013441D01*
X010510Y013428D01*
X010519Y013412D01*
X010525Y013394D01*
X010527Y013376D01*
X010525Y013358D01*
X010519Y013340D01*
X010510Y013324D01*
X010498Y013311D01*
X010483Y013300D01*
X010466Y013292D01*
X010448Y013288D01*
X010430Y013288D01*
X010412Y013292D01*
X010395Y013300D01*
X010380Y013311D01*
X010368Y013324D01*
X010359Y013340D01*
X010353Y013358D01*
X010351Y013376D01*
X010557Y011148D02*
X009770Y011148D01*
X009180Y010518D02*
X009180Y010388D01*
X009180Y009939D01*
X009180Y009809D01*
X009770Y009180D02*
X010557Y009180D01*
X010351Y009376D02*
X010353Y009394D01*
X010359Y009412D01*
X010368Y009428D01*
X010380Y009441D01*
X010395Y009452D01*
X010412Y009460D01*
X010430Y009464D01*
X010448Y009464D01*
X010466Y009460D01*
X010483Y009452D01*
X010498Y009441D01*
X010510Y009428D01*
X010519Y009412D01*
X010525Y009394D01*
X010527Y009376D01*
X010525Y009358D01*
X010519Y009340D01*
X010510Y009324D01*
X010498Y009311D01*
X010483Y009300D01*
X010466Y009292D01*
X010448Y009288D01*
X010430Y009288D01*
X010412Y009292D01*
X010395Y009300D01*
X010380Y009311D01*
X010368Y009324D01*
X010359Y009340D01*
X010353Y009358D01*
X010351Y009376D01*
X011148Y009809D02*
X011148Y010518D01*
X013180Y010518D02*
X013180Y010388D01*
X013180Y009939D01*
X013180Y009809D01*
X013770Y009180D02*
X014557Y009180D01*
X014351Y009376D02*
X014353Y009394D01*
X014359Y009412D01*
X014368Y009428D01*
X014380Y009441D01*
X014395Y009452D01*
X014412Y009460D01*
X014430Y009464D01*
X014448Y009464D01*
X014466Y009460D01*
X014483Y009452D01*
X014498Y009441D01*
X014510Y009428D01*
X014519Y009412D01*
X014525Y009394D01*
X014527Y009376D01*
X014525Y009358D01*
X014519Y009340D01*
X014510Y009324D01*
X014498Y009311D01*
X014483Y009300D01*
X014466Y009292D01*
X014448Y009288D01*
X014430Y009288D01*
X014412Y009292D01*
X014395Y009300D01*
X014380Y009311D01*
X014368Y009324D01*
X014359Y009340D01*
X014353Y009358D01*
X014351Y009376D01*
X015148Y009809D02*
X015148Y010518D01*
X014557Y011148D02*
X013770Y011148D01*
X013770Y007148D02*
X014557Y007148D01*
X015148Y006518D02*
X015148Y005809D01*
X014351Y005376D02*
X014353Y005394D01*
X014359Y005412D01*
X014368Y005428D01*
X014380Y005441D01*
X014395Y005452D01*
X014412Y005460D01*
X014430Y005464D01*
X014448Y005464D01*
X014466Y005460D01*
X014483Y005452D01*
X014498Y005441D01*
X014510Y005428D01*
X014519Y005412D01*
X014525Y005394D01*
X014527Y005376D01*
X014525Y005358D01*
X014519Y005340D01*
X014510Y005324D01*
X014498Y005311D01*
X014483Y005300D01*
X014466Y005292D01*
X014448Y005288D01*
X014430Y005288D01*
X014412Y005292D01*
X014395Y005300D01*
X014380Y005311D01*
X014368Y005324D01*
X014359Y005340D01*
X014353Y005358D01*
X014351Y005376D01*
X014557Y005180D02*
X013770Y005180D01*
X013180Y005809D02*
X013180Y005939D01*
X013180Y006388D01*
X013180Y006518D01*
X011148Y006518D02*
X011148Y005809D01*
X010557Y005180D02*
X009770Y005180D01*
X010351Y005376D02*
X010353Y005394D01*
X010359Y005412D01*
X010368Y005428D01*
X010380Y005441D01*
X010395Y005452D01*
X010412Y005460D01*
X010430Y005464D01*
X010448Y005464D01*
X010466Y005460D01*
X010483Y005452D01*
X010498Y005441D01*
X010510Y005428D01*
X010519Y005412D01*
X010525Y005394D01*
X010527Y005376D01*
X010525Y005358D01*
X010519Y005340D01*
X010510Y005324D01*
X010498Y005311D01*
X010483Y005300D01*
X010466Y005292D01*
X010448Y005288D01*
X010430Y005288D01*
X010412Y005292D01*
X010395Y005300D01*
X010380Y005311D01*
X010368Y005324D01*
X010359Y005340D01*
X010353Y005358D01*
X010351Y005376D01*
X009180Y005809D02*
X009180Y005939D01*
X009180Y006388D01*
X009180Y006518D01*
X009770Y007148D02*
X010557Y007148D01*
X010557Y003148D02*
X009770Y003148D01*
X009180Y002518D02*
X009180Y002388D01*
X009180Y001939D01*
X009180Y001809D01*
X009770Y001180D02*
X010557Y001180D01*
X010351Y001376D02*
X010353Y001394D01*
X010359Y001412D01*
X010368Y001428D01*
X010380Y001441D01*
X010395Y001452D01*
X010412Y001460D01*
X010430Y001464D01*
X010448Y001464D01*
X010466Y001460D01*
X010483Y001452D01*
X010498Y001441D01*
X010510Y001428D01*
X010519Y001412D01*
X010525Y001394D01*
X010527Y001376D01*
X010525Y001358D01*
X010519Y001340D01*
X010510Y001324D01*
X010498Y001311D01*
X010483Y001300D01*
X010466Y001292D01*
X010448Y001288D01*
X010430Y001288D01*
X010412Y001292D01*
X010395Y001300D01*
X010380Y001311D01*
X010368Y001324D01*
X010359Y001340D01*
X010353Y001358D01*
X010351Y001376D01*
X011148Y001809D02*
X011148Y002518D01*
X007148Y002518D02*
X007148Y001809D01*
X006351Y001376D02*
X006353Y001394D01*
X006359Y001412D01*
X006368Y001428D01*
X006380Y001441D01*
X006395Y001452D01*
X006412Y001460D01*
X006430Y001464D01*
X006448Y001464D01*
X006466Y001460D01*
X006483Y001452D01*
X006498Y001441D01*
X006510Y001428D01*
X006519Y001412D01*
X006525Y001394D01*
X006527Y001376D01*
X006525Y001358D01*
X006519Y001340D01*
X006510Y001324D01*
X006498Y001311D01*
X006483Y001300D01*
X006466Y001292D01*
X006448Y001288D01*
X006430Y001288D01*
X006412Y001292D01*
X006395Y001300D01*
X006380Y001311D01*
X006368Y001324D01*
X006359Y001340D01*
X006353Y001358D01*
X006351Y001376D01*
X006557Y001180D02*
X005770Y001180D01*
X005180Y001809D02*
X005180Y001939D01*
X005180Y002388D01*
X005180Y002518D01*
X005770Y003148D02*
X006557Y003148D01*
D12*
X004017Y001896D02*
X001896Y004017D01*
X002603Y004724D01*
X004724Y002603D01*
X004017Y001896D01*
M02*
