G75*
G70*
%OFA0B0*%
%FSLAX24Y24*%
%IPPOS*%
%LPD*%
%AMOC8*
5,1,8,0,0,1.08239X$1,22.5*
%
%ADD10C,0.0000*%
%ADD11C,0.0660*%
%ADD12C,0.0120*%
%ADD13C,0.0357*%
D10*
X004664Y003164D02*
X002664Y005164D01*
X013664Y005164D01*
X011664Y003164D01*
X004664Y003164D01*
X002164Y007164D02*
X002164Y009164D01*
X014164Y009164D01*
X014164Y007164D01*
X002164Y007164D01*
X002664Y011164D02*
X004664Y013164D01*
X011664Y013164D01*
X013664Y011164D01*
X002664Y011164D01*
X000290Y008164D02*
X000299Y007784D01*
X000327Y007404D01*
X000373Y007026D01*
X000437Y006651D01*
X000519Y006280D01*
X000619Y005912D01*
X000736Y005551D01*
X000871Y005195D01*
X001023Y004846D01*
X001192Y004505D01*
X001377Y004172D01*
X001578Y003849D01*
X001794Y003536D01*
X002025Y003233D01*
X002270Y002943D01*
X002529Y002664D01*
X002802Y002398D01*
X003087Y002146D01*
X003383Y001907D01*
X003691Y001684D01*
X004009Y001475D01*
X004337Y001282D01*
X004674Y001106D01*
X005019Y000945D01*
X005372Y000802D01*
X005731Y000675D01*
X006095Y000567D01*
X006465Y000476D01*
X006838Y000402D01*
X007215Y000347D01*
X007594Y000311D01*
X007974Y000292D01*
X008354Y000292D01*
X008734Y000311D01*
X009113Y000347D01*
X009490Y000402D01*
X009863Y000476D01*
X010233Y000567D01*
X010597Y000675D01*
X010956Y000802D01*
X011309Y000945D01*
X011654Y001106D01*
X011991Y001282D01*
X012319Y001475D01*
X012637Y001684D01*
X012945Y001907D01*
X013241Y002146D01*
X013526Y002398D01*
X013799Y002664D01*
X014058Y002943D01*
X014303Y003233D01*
X014534Y003536D01*
X014750Y003849D01*
X014951Y004172D01*
X015136Y004505D01*
X015305Y004846D01*
X015457Y005195D01*
X015592Y005551D01*
X015709Y005912D01*
X015809Y006280D01*
X015891Y006651D01*
X015955Y007026D01*
X016001Y007404D01*
X016029Y007784D01*
X016038Y008164D01*
X016029Y008544D01*
X016001Y008924D01*
X015955Y009302D01*
X015891Y009677D01*
X015809Y010048D01*
X015709Y010416D01*
X015592Y010777D01*
X015457Y011133D01*
X015305Y011482D01*
X015136Y011823D01*
X014951Y012156D01*
X014750Y012479D01*
X014534Y012792D01*
X014303Y013095D01*
X014058Y013385D01*
X013799Y013664D01*
X013526Y013930D01*
X013241Y014182D01*
X012945Y014421D01*
X012637Y014644D01*
X012319Y014853D01*
X011991Y015046D01*
X011654Y015222D01*
X011309Y015383D01*
X010956Y015526D01*
X010597Y015653D01*
X010233Y015761D01*
X009863Y015852D01*
X009490Y015926D01*
X009113Y015981D01*
X008734Y016017D01*
X008354Y016036D01*
X007974Y016036D01*
X007594Y016017D01*
X007215Y015981D01*
X006838Y015926D01*
X006465Y015852D01*
X006095Y015761D01*
X005731Y015653D01*
X005372Y015526D01*
X005019Y015383D01*
X004674Y015222D01*
X004337Y015046D01*
X004009Y014853D01*
X003691Y014644D01*
X003383Y014421D01*
X003087Y014182D01*
X002802Y013930D01*
X002529Y013664D01*
X002270Y013385D01*
X002025Y013095D01*
X001794Y012792D01*
X001578Y012479D01*
X001377Y012156D01*
X001192Y011823D01*
X001023Y011482D01*
X000871Y011133D01*
X000736Y010777D01*
X000619Y010416D01*
X000519Y010048D01*
X000437Y009677D01*
X000373Y009302D01*
X000327Y008924D01*
X000299Y008544D01*
X000290Y008164D01*
D11*
X002603Y004017D03*
X003310Y003310D03*
X004017Y002603D03*
D12*
X003553Y002711D02*
X002727Y002711D01*
X002600Y002829D02*
X003602Y002829D01*
X003619Y002869D02*
X003547Y002697D01*
X003547Y002510D01*
X003619Y002337D01*
X003751Y002205D01*
X003924Y002133D01*
X004111Y002133D01*
X004284Y002205D01*
X004416Y002337D01*
X004487Y002510D01*
X004487Y002697D01*
X004416Y002869D01*
X004284Y003002D01*
X004111Y003073D01*
X003924Y003073D01*
X003751Y003002D01*
X003619Y002869D01*
X003576Y002912D02*
X003709Y003044D01*
X003780Y003217D01*
X003780Y003404D01*
X003709Y003576D01*
X003576Y003709D01*
X003404Y003780D01*
X003217Y003780D01*
X003044Y003709D01*
X002912Y003576D01*
X002884Y003510D01*
X002600Y003510D01*
X002583Y003527D01*
X002642Y003527D01*
X002718Y003539D01*
X002791Y003563D01*
X002860Y003598D01*
X002922Y003644D01*
X002603Y003963D01*
X002658Y004017D01*
X002977Y003698D01*
X003022Y003760D01*
X003057Y003829D01*
X003081Y003903D01*
X003093Y003979D01*
X003093Y004056D01*
X003081Y004132D01*
X003057Y004205D01*
X003022Y004274D01*
X002977Y004336D01*
X002977Y004337D01*
X002658Y004017D01*
X002603Y004072D01*
X002549Y004017D01*
X002229Y004337D01*
X002229Y004336D02*
X002184Y004274D01*
X002149Y004205D01*
X002125Y004132D01*
X002113Y004056D01*
X002113Y003997D01*
X001864Y004247D01*
X001864Y006456D01*
X001864Y006595D01*
X001977Y006595D01*
X002094Y006644D01*
X002184Y006733D01*
X002232Y006850D01*
X002232Y006977D01*
X002221Y007004D01*
X002230Y007004D01*
X006054Y007004D01*
X006043Y006994D01*
X005995Y006877D01*
X005995Y006778D01*
X005574Y006357D01*
X005475Y006357D01*
X005358Y006309D01*
X005269Y006219D01*
X005220Y006102D01*
X005220Y005975D01*
X005269Y005858D01*
X005358Y005769D01*
X005475Y005720D01*
X005602Y005720D01*
X005719Y005769D01*
X005809Y005858D01*
X005857Y005975D01*
X005857Y006074D01*
X006278Y006495D01*
X006377Y006495D01*
X006494Y006543D01*
X006583Y006633D01*
X006632Y006750D01*
X006632Y006877D01*
X006583Y006994D01*
X006573Y007004D01*
X010054Y007004D01*
X010043Y006994D01*
X009995Y006877D01*
X009995Y006778D01*
X009574Y006357D01*
X009475Y006357D01*
X009358Y006309D01*
X009269Y006219D01*
X009220Y006102D01*
X009220Y005975D01*
X009269Y005858D01*
X009358Y005769D01*
X009475Y005720D01*
X009602Y005720D01*
X009719Y005769D01*
X009809Y005858D01*
X009857Y005975D01*
X009857Y006074D01*
X010278Y006495D01*
X010377Y006495D01*
X010494Y006543D01*
X010583Y006633D01*
X010632Y006750D01*
X010632Y006877D01*
X010583Y006994D01*
X010573Y007004D01*
X014097Y007004D01*
X014221Y007004D01*
X013574Y006357D01*
X013475Y006357D01*
X013358Y006309D01*
X013269Y006219D01*
X013220Y006102D01*
X013220Y005975D01*
X013269Y005858D01*
X013358Y005769D01*
X013475Y005720D01*
X013569Y005720D01*
X013543Y005695D01*
X013495Y005578D01*
X013495Y005451D01*
X013543Y005334D01*
X013554Y005324D01*
X002730Y005324D01*
X002597Y005324D01*
X002504Y005230D01*
X002504Y005097D01*
X004597Y003004D01*
X004730Y003004D01*
X011554Y003004D01*
X011543Y002994D01*
X011495Y002877D01*
X011495Y002750D01*
X011543Y002633D01*
X011633Y002543D01*
X011750Y002495D01*
X011877Y002495D01*
X011994Y002543D01*
X012083Y002633D01*
X012132Y002750D01*
X012132Y002849D01*
X014114Y004831D01*
X014114Y004997D01*
X014114Y005331D01*
X014114Y005407D01*
X014132Y005451D01*
X014132Y005578D01*
X014083Y005695D01*
X013994Y005784D01*
X013877Y005833D01*
X013783Y005833D01*
X013809Y005858D01*
X013857Y005975D01*
X013857Y006074D01*
X014907Y007124D01*
X014975Y007095D01*
X015102Y007095D01*
X015219Y007144D01*
X015309Y007233D01*
X015357Y007350D01*
X015357Y007477D01*
X015309Y007594D01*
X015219Y007684D01*
X015102Y007732D01*
X014975Y007732D01*
X014858Y007684D01*
X014769Y007594D01*
X014739Y007522D01*
X014324Y007107D01*
X014324Y009097D01*
X014324Y009230D01*
X014230Y009324D01*
X002230Y009324D01*
X002097Y009324D01*
X002004Y009230D01*
X002004Y007221D01*
X001977Y007232D01*
X001878Y007232D01*
X001239Y007872D01*
X001239Y008663D01*
X001309Y008733D01*
X001351Y008836D01*
X001394Y008733D01*
X001483Y008644D01*
X001600Y008595D01*
X001727Y008595D01*
X001844Y008644D01*
X001934Y008733D01*
X001982Y008850D01*
X001982Y008977D01*
X001934Y009094D01*
X001864Y009164D01*
X001864Y011081D01*
X004747Y013964D01*
X005413Y013964D01*
X005483Y013894D01*
X005600Y013845D01*
X005727Y013845D01*
X005844Y013894D01*
X005934Y013983D01*
X005982Y014100D01*
X005982Y014227D01*
X005934Y014344D01*
X005844Y014434D01*
X005727Y014482D01*
X005600Y014482D01*
X005483Y014434D01*
X005413Y014364D01*
X004581Y014364D01*
X004464Y014247D01*
X001464Y011247D01*
X001464Y011081D01*
X001464Y009164D01*
X001394Y009094D01*
X001351Y008991D01*
X001309Y009094D01*
X001219Y009184D01*
X001102Y009232D01*
X000975Y009232D01*
X000858Y009184D01*
X000769Y009094D01*
X000720Y008977D01*
X000720Y008850D01*
X000769Y008733D01*
X000839Y008663D01*
X000839Y007872D01*
X000839Y007732D01*
X000725Y007732D01*
X000608Y007684D01*
X000519Y007594D01*
X000485Y007512D01*
X000468Y007637D01*
X000450Y008164D01*
X000839Y008164D01*
X000839Y008282D02*
X000454Y008282D01*
X000450Y008164D02*
X000468Y008690D01*
X000611Y009733D01*
X000895Y010747D01*
X001315Y011713D01*
X001862Y012612D01*
X002526Y013429D01*
X003296Y014148D01*
X004156Y014755D01*
X005090Y015239D01*
X006083Y015592D01*
X007113Y015806D01*
X008164Y015878D01*
X009214Y015806D01*
X010245Y015592D01*
X011237Y015239D01*
X012172Y014755D01*
X013032Y014148D01*
X013801Y013429D01*
X014466Y012612D01*
X015013Y011713D01*
X015432Y010747D01*
X015716Y009733D01*
X015860Y008690D01*
X015878Y008164D01*
X015878Y008164D01*
X014324Y008164D01*
X014324Y008282D02*
X015874Y008282D01*
X015878Y008164D02*
X015860Y007637D01*
X015716Y006594D01*
X015432Y005580D01*
X015013Y004615D01*
X014466Y003715D01*
X013801Y002899D01*
X013032Y002180D01*
X012172Y001573D01*
X011237Y001088D01*
X010245Y000736D01*
X009214Y000522D01*
X008164Y000450D01*
X007113Y000522D01*
X006083Y000736D01*
X005090Y001088D01*
X004156Y001573D01*
X003296Y002180D01*
X002526Y002899D01*
X002002Y003543D01*
X002434Y003110D01*
X002600Y003110D01*
X002884Y003110D01*
X002912Y003044D01*
X003044Y002912D01*
X003217Y002840D01*
X003404Y002840D01*
X003576Y002912D01*
X003613Y002948D02*
X003697Y002948D01*
X003718Y003066D02*
X003908Y003066D01*
X003767Y003185D02*
X004416Y003185D01*
X004298Y003304D02*
X003780Y003304D01*
X003773Y003422D02*
X004179Y003422D01*
X004061Y003541D02*
X003724Y003541D01*
X003626Y003659D02*
X003942Y003659D01*
X003824Y003778D02*
X003410Y003778D01*
X003211Y003778D02*
X003031Y003778D01*
X002977Y003698D02*
X002977Y003698D01*
X002994Y003659D02*
X002907Y003659D01*
X002922Y003644D02*
X002922Y003644D01*
X002897Y003541D02*
X002722Y003541D01*
X002517Y003310D02*
X001664Y004164D01*
X001664Y006539D01*
X000789Y007414D01*
X000509Y007571D02*
X000477Y007571D01*
X000466Y007690D02*
X000623Y007690D01*
X000462Y007808D02*
X000839Y007808D01*
X000839Y007927D02*
X000458Y007927D01*
X000454Y008045D02*
X000839Y008045D01*
X001039Y007789D02*
X001914Y006914D01*
X002043Y006623D02*
X005840Y006623D01*
X005958Y006741D02*
X002187Y006741D01*
X002232Y006860D02*
X005995Y006860D01*
X006037Y006978D02*
X002232Y006978D01*
X002004Y007334D02*
X001776Y007334D01*
X001658Y007453D02*
X002004Y007453D01*
X002004Y007571D02*
X001539Y007571D01*
X001421Y007690D02*
X002004Y007690D01*
X002004Y007808D02*
X001302Y007808D01*
X001239Y007927D02*
X002004Y007927D01*
X002004Y008045D02*
X001239Y008045D01*
X001239Y008164D02*
X002004Y008164D01*
X002004Y008282D02*
X001239Y008282D01*
X001239Y008401D02*
X002004Y008401D01*
X002004Y008519D02*
X001239Y008519D01*
X001239Y008638D02*
X001498Y008638D01*
X001384Y008756D02*
X001318Y008756D01*
X001350Y008994D02*
X001352Y008994D01*
X001291Y009112D02*
X001412Y009112D01*
X001464Y009231D02*
X001106Y009231D01*
X000972Y009231D02*
X000542Y009231D01*
X000558Y009349D02*
X001464Y009349D01*
X001464Y009468D02*
X000575Y009468D01*
X000591Y009586D02*
X001464Y009586D01*
X001464Y009705D02*
X000607Y009705D01*
X000636Y009823D02*
X001464Y009823D01*
X001464Y009942D02*
X000670Y009942D01*
X000703Y010060D02*
X001464Y010060D01*
X001464Y010179D02*
X000736Y010179D01*
X000769Y010298D02*
X001464Y010298D01*
X001464Y010416D02*
X000802Y010416D01*
X000836Y010535D02*
X001464Y010535D01*
X001464Y010653D02*
X000869Y010653D01*
X000906Y010772D02*
X001464Y010772D01*
X001464Y010890D02*
X000957Y010890D01*
X001009Y011009D02*
X001464Y011009D01*
X001464Y011127D02*
X001060Y011127D01*
X001112Y011246D02*
X001464Y011246D01*
X001582Y011364D02*
X001163Y011364D01*
X001215Y011483D02*
X001700Y011483D01*
X001819Y011602D02*
X001266Y011602D01*
X001319Y011720D02*
X001937Y011720D01*
X002056Y011839D02*
X001391Y011839D01*
X001463Y011957D02*
X002174Y011957D01*
X002293Y012076D02*
X001535Y012076D01*
X001607Y012194D02*
X002411Y012194D01*
X002530Y012313D02*
X001679Y012313D01*
X001752Y012431D02*
X002649Y012431D01*
X002767Y012550D02*
X001824Y012550D01*
X001907Y012668D02*
X002886Y012668D01*
X003004Y012787D02*
X002004Y012787D01*
X002100Y012906D02*
X003123Y012906D01*
X003241Y013024D02*
X002197Y013024D01*
X002293Y013143D02*
X003360Y013143D01*
X003478Y013261D02*
X002389Y013261D01*
X002486Y013380D02*
X003597Y013380D01*
X003715Y013498D02*
X002600Y013498D01*
X002727Y013617D02*
X003834Y013617D01*
X003952Y013735D02*
X002854Y013735D01*
X002981Y013854D02*
X004071Y013854D01*
X004190Y013972D02*
X003108Y013972D01*
X003235Y014091D02*
X004308Y014091D01*
X004427Y014209D02*
X003383Y014209D01*
X003551Y014328D02*
X004545Y014328D01*
X004664Y014164D02*
X005664Y014164D01*
X005813Y014447D02*
X009514Y014447D01*
X009483Y014434D02*
X009394Y014344D01*
X009345Y014227D01*
X009345Y014100D01*
X009394Y013983D01*
X009483Y013894D01*
X009600Y013845D01*
X009727Y013845D01*
X009844Y013894D01*
X009934Y013983D01*
X009982Y014100D01*
X009982Y014199D01*
X010278Y014495D01*
X010377Y014495D01*
X010494Y014543D01*
X010583Y014633D01*
X010632Y014750D01*
X010632Y014877D01*
X010583Y014994D01*
X010494Y015083D01*
X010377Y015132D01*
X010250Y015132D01*
X010133Y015083D01*
X010043Y014994D01*
X009995Y014877D01*
X009995Y014778D01*
X009699Y014482D01*
X009600Y014482D01*
X009483Y014434D01*
X009387Y014328D02*
X005940Y014328D01*
X005982Y014209D02*
X009345Y014209D01*
X009349Y014091D02*
X005978Y014091D01*
X005923Y013972D02*
X009405Y013972D01*
X009580Y013854D02*
X005748Y013854D01*
X005580Y013854D02*
X004637Y013854D01*
X004518Y013735D02*
X009785Y013735D01*
X009744Y013695D02*
X009696Y013578D01*
X009696Y013451D01*
X009744Y013334D01*
X009754Y013324D01*
X004730Y013324D01*
X004597Y013324D01*
X002504Y011230D01*
X002504Y011097D01*
X002597Y011004D01*
X002730Y011004D01*
X013730Y011004D01*
X013824Y011097D01*
X013824Y011221D01*
X014196Y010849D01*
X014196Y010750D01*
X014244Y010633D01*
X014334Y010543D01*
X014451Y010495D01*
X014578Y010495D01*
X014695Y010543D01*
X014784Y010633D01*
X014833Y010750D01*
X014833Y010877D01*
X014784Y010994D01*
X014695Y011083D01*
X014578Y011132D01*
X014479Y011132D01*
X011896Y013714D01*
X011731Y013714D01*
X010264Y013714D01*
X010195Y013784D01*
X010078Y013833D01*
X009951Y013833D01*
X009834Y013784D01*
X009744Y013695D01*
X009712Y013617D02*
X004400Y013617D01*
X004281Y013498D02*
X009696Y013498D01*
X009725Y013380D02*
X004163Y013380D01*
X004044Y013261D02*
X004535Y013261D01*
X004416Y013143D02*
X003925Y013143D01*
X003807Y013024D02*
X004298Y013024D01*
X004179Y012906D02*
X003688Y012906D01*
X003570Y012787D02*
X004061Y012787D01*
X003942Y012668D02*
X003451Y012668D01*
X003333Y012550D02*
X003824Y012550D01*
X003705Y012431D02*
X003214Y012431D01*
X003096Y012313D02*
X003587Y012313D01*
X003468Y012194D02*
X002977Y012194D01*
X002859Y012076D02*
X003349Y012076D01*
X003231Y011957D02*
X002740Y011957D01*
X002621Y011839D02*
X003112Y011839D01*
X002994Y011720D02*
X002503Y011720D01*
X002384Y011602D02*
X002875Y011602D01*
X002757Y011483D02*
X002266Y011483D01*
X002147Y011364D02*
X002638Y011364D01*
X002520Y011246D02*
X002029Y011246D01*
X001910Y011127D02*
X002504Y011127D01*
X002592Y011009D02*
X001864Y011009D01*
X001864Y010890D02*
X014154Y010890D01*
X014196Y010772D02*
X012381Y010772D01*
X012344Y010809D02*
X012227Y010857D01*
X012100Y010857D01*
X011983Y010809D01*
X011894Y010719D01*
X011845Y010602D01*
X011845Y010475D01*
X011894Y010358D01*
X011964Y010288D01*
X011964Y010039D01*
X011894Y009969D01*
X011845Y009852D01*
X011845Y009725D01*
X011894Y009608D01*
X011983Y009519D01*
X012100Y009470D01*
X012227Y009470D01*
X012344Y009519D01*
X012434Y009608D01*
X012482Y009725D01*
X012482Y009852D01*
X012434Y009969D01*
X012364Y010039D01*
X012364Y010288D01*
X012434Y010358D01*
X012482Y010475D01*
X012482Y010602D01*
X012434Y010719D01*
X012344Y010809D01*
X012461Y010653D02*
X014236Y010653D01*
X014355Y010535D02*
X012482Y010535D01*
X012458Y010416D02*
X015525Y010416D01*
X015558Y010298D02*
X012373Y010298D01*
X012364Y010179D02*
X015592Y010179D01*
X015625Y010060D02*
X012364Y010060D01*
X012445Y009942D02*
X015658Y009942D01*
X015691Y009823D02*
X012482Y009823D01*
X012474Y009705D02*
X015720Y009705D01*
X015737Y009586D02*
X012412Y009586D01*
X012164Y009789D02*
X012164Y010539D01*
X011946Y010772D02*
X008381Y010772D01*
X008344Y010809D02*
X008434Y010719D01*
X008482Y010602D01*
X008482Y010475D01*
X008434Y010358D01*
X008364Y010288D01*
X008364Y010039D01*
X008434Y009969D01*
X008482Y009852D01*
X008482Y009725D01*
X008434Y009608D01*
X008344Y009519D01*
X008227Y009470D01*
X008100Y009470D01*
X007983Y009519D01*
X007894Y009608D01*
X007845Y009725D01*
X007845Y009852D01*
X007894Y009969D01*
X007964Y010039D01*
X007964Y010288D01*
X007894Y010358D01*
X007845Y010475D01*
X007845Y010602D01*
X007894Y010719D01*
X007983Y010809D01*
X008100Y010857D01*
X008227Y010857D01*
X008344Y010809D01*
X008461Y010653D02*
X011867Y010653D01*
X011845Y010535D02*
X008482Y010535D01*
X008458Y010416D02*
X011870Y010416D01*
X011955Y010298D02*
X008373Y010298D01*
X008364Y010179D02*
X011964Y010179D01*
X011964Y010060D02*
X008364Y010060D01*
X008445Y009942D02*
X011883Y009942D01*
X011845Y009823D02*
X008482Y009823D01*
X008474Y009705D02*
X011854Y009705D01*
X011916Y009586D02*
X008412Y009586D01*
X008164Y009789D02*
X008164Y010539D01*
X007946Y010772D02*
X004381Y010772D01*
X004344Y010809D02*
X004227Y010857D01*
X004100Y010857D01*
X003983Y010809D01*
X003894Y010719D01*
X003845Y010602D01*
X003845Y010475D01*
X003894Y010358D01*
X003964Y010288D01*
X003964Y010039D01*
X003894Y009969D01*
X003845Y009852D01*
X003845Y009725D01*
X003894Y009608D01*
X003983Y009519D01*
X004100Y009470D01*
X004227Y009470D01*
X004344Y009519D01*
X004434Y009608D01*
X004482Y009725D01*
X004482Y009852D01*
X004434Y009969D01*
X004364Y010039D01*
X004364Y010288D01*
X004434Y010358D01*
X004482Y010475D01*
X004482Y010602D01*
X004434Y010719D01*
X004344Y010809D01*
X004461Y010653D02*
X007867Y010653D01*
X007845Y010535D02*
X004482Y010535D01*
X004458Y010416D02*
X007870Y010416D01*
X007955Y010298D02*
X004373Y010298D01*
X004364Y010179D02*
X007964Y010179D01*
X007964Y010060D02*
X004364Y010060D01*
X004445Y009942D02*
X007883Y009942D01*
X007845Y009823D02*
X004482Y009823D01*
X004474Y009705D02*
X007854Y009705D01*
X007916Y009586D02*
X004412Y009586D01*
X004164Y009789D02*
X004164Y010539D01*
X003946Y010772D02*
X001864Y010772D01*
X001864Y010653D02*
X003867Y010653D01*
X003845Y010535D02*
X001864Y010535D01*
X001864Y010416D02*
X003870Y010416D01*
X003955Y010298D02*
X001864Y010298D01*
X001864Y010179D02*
X003964Y010179D01*
X003964Y010060D02*
X001864Y010060D01*
X001864Y009942D02*
X003883Y009942D01*
X003845Y009823D02*
X001864Y009823D01*
X001864Y009705D02*
X003854Y009705D01*
X003916Y009586D02*
X001864Y009586D01*
X001864Y009468D02*
X015753Y009468D01*
X015769Y009349D02*
X001864Y009349D01*
X001864Y009231D02*
X002004Y009231D01*
X002004Y009112D02*
X001916Y009112D01*
X001975Y008994D02*
X002004Y008994D01*
X002004Y008875D02*
X001982Y008875D01*
X002004Y008756D02*
X001943Y008756D01*
X002004Y008638D02*
X001830Y008638D01*
X001664Y008914D02*
X001664Y011164D01*
X004664Y014164D01*
X004247Y014802D02*
X009995Y014802D01*
X010013Y014921D02*
X004476Y014921D01*
X004705Y015039D02*
X010089Y015039D01*
X010313Y014813D02*
X009664Y014164D01*
X009923Y013972D02*
X013220Y013972D01*
X013347Y013854D02*
X009748Y013854D01*
X009978Y014091D02*
X013093Y014091D01*
X012944Y014209D02*
X009992Y014209D01*
X010111Y014328D02*
X012776Y014328D01*
X012608Y014447D02*
X010229Y014447D01*
X010515Y014565D02*
X012441Y014565D01*
X012273Y014684D02*
X010604Y014684D01*
X010632Y014802D02*
X012080Y014802D01*
X011852Y014921D02*
X010614Y014921D01*
X010538Y015039D02*
X011623Y015039D01*
X011394Y015158D02*
X004934Y015158D01*
X005195Y015276D02*
X011132Y015276D01*
X010799Y015395D02*
X005529Y015395D01*
X005862Y015513D02*
X010465Y015513D01*
X010051Y015632D02*
X006276Y015632D01*
X006847Y015751D02*
X009481Y015751D01*
X009901Y014684D02*
X004055Y014684D01*
X003887Y014565D02*
X009782Y014565D01*
X010243Y013735D02*
X013473Y013735D01*
X013600Y013617D02*
X011994Y013617D01*
X012112Y013498D02*
X013727Y013498D01*
X013842Y013380D02*
X012231Y013380D01*
X012349Y013261D02*
X013938Y013261D01*
X014034Y013143D02*
X012468Y013143D01*
X012586Y013024D02*
X014131Y013024D01*
X014227Y012906D02*
X012705Y012906D01*
X012823Y012787D02*
X014324Y012787D01*
X014420Y012668D02*
X012942Y012668D01*
X013060Y012550D02*
X014504Y012550D01*
X014576Y012431D02*
X013179Y012431D01*
X013298Y012313D02*
X014648Y012313D01*
X014720Y012194D02*
X013416Y012194D01*
X013535Y012076D02*
X014792Y012076D01*
X014864Y011957D02*
X013653Y011957D01*
X013772Y011839D02*
X014936Y011839D01*
X015008Y011720D02*
X013890Y011720D01*
X014009Y011602D02*
X015061Y011602D01*
X015113Y011483D02*
X014127Y011483D01*
X014246Y011364D02*
X015164Y011364D01*
X015216Y011246D02*
X014364Y011246D01*
X014588Y011127D02*
X015267Y011127D01*
X015319Y011009D02*
X014769Y011009D01*
X014827Y010890D02*
X015370Y010890D01*
X015422Y010772D02*
X014833Y010772D01*
X014792Y010653D02*
X015459Y010653D01*
X015492Y010535D02*
X014673Y010535D01*
X014514Y010813D02*
X011813Y013514D01*
X010014Y013514D01*
X008291Y015869D02*
X008037Y015869D01*
X005514Y014447D02*
X003719Y014447D01*
X000787Y009112D02*
X000526Y009112D01*
X000509Y008994D02*
X000727Y008994D01*
X000720Y008875D02*
X000493Y008875D01*
X000477Y008756D02*
X000759Y008756D01*
X000839Y008638D02*
X000466Y008638D01*
X000462Y008519D02*
X000839Y008519D01*
X000839Y008401D02*
X000458Y008401D01*
X000450Y008164D02*
X000450Y008164D01*
X001039Y007789D02*
X001039Y008914D01*
X001864Y006504D02*
X005721Y006504D01*
X005603Y006386D02*
X001864Y006386D01*
X001864Y006267D02*
X005317Y006267D01*
X005240Y006149D02*
X001864Y006149D01*
X001864Y006030D02*
X005220Y006030D01*
X005247Y005911D02*
X001864Y005911D01*
X001864Y005793D02*
X005334Y005793D01*
X005539Y006039D02*
X006313Y006813D01*
X006399Y006504D02*
X009721Y006504D01*
X009603Y006386D02*
X006168Y006386D01*
X006050Y006267D02*
X009317Y006267D01*
X009240Y006149D02*
X005931Y006149D01*
X005857Y006030D02*
X009220Y006030D01*
X009247Y005911D02*
X005831Y005911D01*
X005743Y005793D02*
X009334Y005793D01*
X009539Y006039D02*
X010313Y006813D01*
X010573Y006623D02*
X013840Y006623D01*
X013958Y006741D02*
X010628Y006741D01*
X010632Y006860D02*
X014077Y006860D01*
X014196Y006978D02*
X010590Y006978D01*
X010399Y006504D02*
X013721Y006504D01*
X013603Y006386D02*
X010168Y006386D01*
X010050Y006267D02*
X013317Y006267D01*
X013240Y006149D02*
X009931Y006149D01*
X009857Y006030D02*
X013220Y006030D01*
X013247Y005911D02*
X009831Y005911D01*
X009743Y005793D02*
X013334Y005793D01*
X013535Y005674D02*
X001864Y005674D01*
X001864Y005556D02*
X013495Y005556D01*
X013501Y005437D02*
X001864Y005437D01*
X001864Y005319D02*
X002592Y005319D01*
X002504Y005200D02*
X001864Y005200D01*
X001864Y005082D02*
X002520Y005082D01*
X002638Y004963D02*
X001864Y004963D01*
X001864Y004845D02*
X002757Y004845D01*
X002875Y004726D02*
X001864Y004726D01*
X001864Y004607D02*
X002994Y004607D01*
X003112Y004489D02*
X002737Y004489D01*
X002718Y004495D02*
X002642Y004507D01*
X002565Y004507D01*
X002488Y004495D01*
X002415Y004471D01*
X002346Y004436D01*
X002284Y004391D01*
X002284Y004391D01*
X002603Y004072D01*
X002922Y004391D01*
X002860Y004436D01*
X002791Y004471D01*
X002718Y004495D01*
X002902Y004370D02*
X003231Y004370D01*
X003349Y004252D02*
X003034Y004252D01*
X003081Y004133D02*
X003468Y004133D01*
X003586Y004015D02*
X003093Y004015D01*
X003079Y003896D02*
X003705Y003896D01*
X003310Y003310D02*
X002517Y003310D01*
X002360Y003185D02*
X002293Y003185D01*
X002241Y003304D02*
X002197Y003304D01*
X002123Y003422D02*
X002100Y003422D01*
X002004Y003541D02*
X002004Y003541D01*
X002096Y004015D02*
X002113Y004015D01*
X002126Y004133D02*
X001977Y004133D01*
X001864Y004252D02*
X002173Y004252D01*
X002229Y004336D02*
X002229Y004337D01*
X002304Y004370D02*
X001864Y004370D01*
X001864Y004489D02*
X002469Y004489D01*
X002423Y004252D02*
X002314Y004252D01*
X002433Y004133D02*
X002541Y004133D01*
X002665Y004133D02*
X002774Y004133D01*
X002783Y004252D02*
X002892Y004252D01*
X002922Y004391D02*
X002922Y004391D01*
X002660Y004015D02*
X002655Y004015D01*
X002670Y003896D02*
X002779Y003896D01*
X002788Y003778D02*
X002897Y003778D01*
X002902Y003066D02*
X002389Y003066D01*
X002486Y002948D02*
X003008Y002948D01*
X002854Y002592D02*
X003547Y002592D01*
X003562Y002474D02*
X002981Y002474D01*
X003108Y002355D02*
X003611Y002355D01*
X003719Y002237D02*
X003235Y002237D01*
X003383Y002118D02*
X007964Y002118D01*
X007964Y002039D02*
X007894Y001969D01*
X007845Y001852D01*
X007845Y001725D01*
X007894Y001608D01*
X007983Y001519D01*
X008100Y001470D01*
X008227Y001470D01*
X008344Y001519D01*
X008434Y001608D01*
X008482Y001725D01*
X008482Y001852D01*
X008434Y001969D01*
X008364Y002039D01*
X008364Y002288D01*
X008434Y002358D01*
X008482Y002475D01*
X008482Y002602D01*
X008434Y002719D01*
X008344Y002809D01*
X008227Y002857D01*
X008100Y002857D01*
X007983Y002809D01*
X007894Y002719D01*
X007845Y002602D01*
X007845Y002475D01*
X007894Y002358D01*
X007964Y002288D01*
X007964Y002039D01*
X007924Y002000D02*
X003551Y002000D01*
X003719Y001881D02*
X007857Y001881D01*
X007845Y001762D02*
X003887Y001762D01*
X004055Y001644D02*
X007879Y001644D01*
X007977Y001525D02*
X004247Y001525D01*
X004476Y001407D02*
X011852Y001407D01*
X012080Y001525D02*
X008351Y001525D01*
X008448Y001644D02*
X012273Y001644D01*
X012441Y001762D02*
X008482Y001762D01*
X008470Y001881D02*
X012014Y001881D01*
X011983Y001894D02*
X012100Y001845D01*
X012227Y001845D01*
X012344Y001894D01*
X012434Y001983D01*
X012482Y002100D01*
X012482Y002199D01*
X014128Y003845D01*
X014227Y003845D01*
X014344Y003894D01*
X014434Y003983D01*
X014482Y004100D01*
X014482Y004227D01*
X014434Y004344D01*
X014344Y004434D01*
X014227Y004482D01*
X014100Y004482D01*
X013983Y004434D01*
X013894Y004344D01*
X013845Y004227D01*
X013845Y004128D01*
X012199Y002482D01*
X012100Y002482D01*
X011983Y002434D01*
X011894Y002344D01*
X011845Y002227D01*
X011845Y002100D01*
X011894Y001983D01*
X011983Y001894D01*
X011887Y002000D02*
X008403Y002000D01*
X008364Y002118D02*
X011845Y002118D01*
X011849Y002237D02*
X008364Y002237D01*
X008430Y002355D02*
X011905Y002355D01*
X012080Y002474D02*
X008481Y002474D01*
X008482Y002592D02*
X011584Y002592D01*
X011511Y002711D02*
X008437Y002711D01*
X008294Y002829D02*
X011495Y002829D01*
X011524Y002948D02*
X004337Y002948D01*
X004432Y002829D02*
X008033Y002829D01*
X007890Y002711D02*
X004481Y002711D01*
X004487Y002592D02*
X007845Y002592D01*
X007846Y002474D02*
X004472Y002474D01*
X004423Y002355D02*
X007897Y002355D01*
X007964Y002237D02*
X004316Y002237D01*
X004127Y003066D02*
X004535Y003066D01*
X004705Y001288D02*
X011623Y001288D01*
X011394Y001170D02*
X004933Y001170D01*
X005195Y001051D02*
X011132Y001051D01*
X010799Y000933D02*
X005529Y000933D01*
X005862Y000814D02*
X010465Y000814D01*
X010051Y000696D02*
X006276Y000696D01*
X006083Y000736D02*
X006083Y000736D01*
X006847Y000577D02*
X009481Y000577D01*
X008292Y000458D02*
X008036Y000458D01*
X008164Y001789D02*
X008164Y002539D01*
X011813Y002813D02*
X013914Y004914D01*
X013914Y005414D01*
X013813Y005514D01*
X013972Y005793D02*
X015492Y005793D01*
X015525Y005911D02*
X013831Y005911D01*
X013857Y006030D02*
X015558Y006030D01*
X015592Y006149D02*
X013931Y006149D01*
X014050Y006267D02*
X015625Y006267D01*
X015658Y006386D02*
X014168Y006386D01*
X014287Y006504D02*
X015691Y006504D01*
X015720Y006623D02*
X014406Y006623D01*
X014524Y006741D02*
X015737Y006741D01*
X015753Y006860D02*
X014643Y006860D01*
X014761Y006978D02*
X015769Y006978D01*
X015786Y007097D02*
X015106Y007097D01*
X014972Y007097D02*
X014880Y007097D01*
X014914Y007414D02*
X013539Y006039D01*
X014092Y005674D02*
X015459Y005674D01*
X015422Y005556D02*
X014132Y005556D01*
X014126Y005437D02*
X015370Y005437D01*
X015319Y005319D02*
X014114Y005319D01*
X014114Y005200D02*
X015267Y005200D01*
X015216Y005082D02*
X014114Y005082D01*
X014114Y004963D02*
X015164Y004963D01*
X015113Y004845D02*
X014114Y004845D01*
X014009Y004726D02*
X015061Y004726D01*
X015009Y004607D02*
X013890Y004607D01*
X013772Y004489D02*
X014936Y004489D01*
X014864Y004370D02*
X014407Y004370D01*
X014472Y004252D02*
X014792Y004252D01*
X014720Y004133D02*
X014482Y004133D01*
X014447Y004015D02*
X014648Y004015D01*
X014576Y003896D02*
X014347Y003896D01*
X014504Y003778D02*
X014060Y003778D01*
X013942Y003659D02*
X014420Y003659D01*
X014324Y003541D02*
X013823Y003541D01*
X013705Y003422D02*
X014227Y003422D01*
X014131Y003304D02*
X013586Y003304D01*
X013468Y003185D02*
X014035Y003185D01*
X013938Y003066D02*
X013349Y003066D01*
X013231Y002948D02*
X013842Y002948D01*
X013727Y002829D02*
X013112Y002829D01*
X012994Y002711D02*
X013600Y002711D01*
X013474Y002592D02*
X012875Y002592D01*
X012756Y002474D02*
X013347Y002474D01*
X013220Y002355D02*
X012638Y002355D01*
X012519Y002237D02*
X013093Y002237D01*
X012944Y002118D02*
X012482Y002118D01*
X012440Y002000D02*
X012776Y002000D01*
X012609Y001881D02*
X012313Y001881D01*
X012164Y002164D02*
X014164Y004164D01*
X014164Y004164D01*
X013920Y004370D02*
X013653Y004370D01*
X013535Y004252D02*
X013856Y004252D01*
X013845Y004133D02*
X013416Y004133D01*
X013298Y004015D02*
X013732Y004015D01*
X013613Y003896D02*
X013179Y003896D01*
X013061Y003778D02*
X013495Y003778D01*
X013376Y003659D02*
X012942Y003659D01*
X012823Y003541D02*
X013258Y003541D01*
X013139Y003422D02*
X012705Y003422D01*
X012586Y003304D02*
X013021Y003304D01*
X012902Y003185D02*
X012468Y003185D01*
X012349Y003066D02*
X012784Y003066D01*
X012665Y002948D02*
X012231Y002948D01*
X012132Y002829D02*
X012546Y002829D01*
X012428Y002711D02*
X012116Y002711D01*
X012043Y002592D02*
X012309Y002592D01*
X009840Y006623D02*
X006573Y006623D01*
X006628Y006741D02*
X009958Y006741D01*
X009995Y006860D02*
X006632Y006860D01*
X006590Y006978D02*
X010037Y006978D01*
X013735Y011009D02*
X014036Y011009D01*
X013917Y011127D02*
X013824Y011127D01*
X014323Y009231D02*
X015786Y009231D01*
X015802Y009112D02*
X014324Y009112D01*
X014324Y008994D02*
X015818Y008994D01*
X015834Y008875D02*
X014324Y008875D01*
X014324Y008756D02*
X015851Y008756D01*
X015862Y008638D02*
X014324Y008638D01*
X014324Y008519D02*
X015866Y008519D01*
X015870Y008401D02*
X014324Y008401D01*
X014324Y008045D02*
X015874Y008045D01*
X015870Y007927D02*
X014324Y007927D01*
X014324Y007808D02*
X015866Y007808D01*
X015862Y007690D02*
X015205Y007690D01*
X015318Y007571D02*
X015851Y007571D01*
X015834Y007453D02*
X015357Y007453D01*
X015350Y007334D02*
X015818Y007334D01*
X015802Y007215D02*
X015291Y007215D01*
X015039Y007414D02*
X014914Y007414D01*
X014759Y007571D02*
X014324Y007571D01*
X014324Y007453D02*
X014670Y007453D01*
X014551Y007334D02*
X014324Y007334D01*
X014324Y007215D02*
X014433Y007215D01*
X014324Y007690D02*
X014873Y007690D01*
D13*
X015039Y007414D03*
X015164Y006164D03*
X013813Y005514D03*
X013539Y006039D03*
X011789Y005664D03*
X010313Y006813D03*
X009539Y006039D03*
X007789Y005664D03*
X006313Y006813D03*
X005539Y006039D03*
X003789Y005664D03*
X001914Y006914D03*
X000789Y007414D03*
X001039Y008914D03*
X001664Y008914D03*
X003789Y009539D03*
X004164Y009789D03*
X004164Y010539D03*
X003664Y014164D03*
X004164Y014414D03*
X005664Y014164D03*
X007789Y013664D03*
X009664Y014164D03*
X010014Y013514D03*
X010539Y013914D03*
X010313Y014813D03*
X014039Y011914D03*
X014414Y012164D03*
X014514Y010813D03*
X015164Y010164D03*
X012164Y010539D03*
X012164Y009789D03*
X011789Y009539D03*
X008164Y009789D03*
X007789Y009539D03*
X008164Y010539D03*
X014164Y004164D03*
X012164Y002164D03*
X011789Y001664D03*
X011813Y002813D03*
X008164Y002539D03*
X008164Y001789D03*
X007789Y001539D03*
M02*
