%
M48
M72
T01C0.0197
T02C0.0394
%
T01
X5664Y14164
X4164Y14414
X3664Y14164
X4164Y10539
X4164Y9789
X3789Y9539
X1664Y8914
X1039Y8914
X789Y7414
X1914Y6914
X3789Y5664
X5539Y6039
X6313Y6813
X7789Y5664
X9539Y6039
X10313Y6813
X11789Y5664
X13539Y6039
X13813Y5514
X14164Y4164
X15164Y6164
X15039Y7414
X15164Y10164
X14514Y10813
X14039Y11914
X14414Y12164
X12164Y10539
X12164Y9789
X11789Y9539
X8164Y9789
X7789Y9539
X8164Y10539
X11813Y2813
X12164Y2164
X11789Y1664
X8164Y1789
X7789Y1539
X8164Y2539
X7789Y13664
X9664Y14164
X10014Y13514
X10539Y13914
X10313Y14813
T02
X3310Y3310
X4017Y2603
X2603Y4017
M30
